<svg width="10" height="6" viewBox="0 0 10 6" fill="none" xmlns="http://www.w3.org/2000/svg">
<path d="M0.16025 0.494001L0.48825 0.164001C0.59125 0.0610008 0.72825 0.00400081 0.87525 0.0040008C1.02225 0.00400079 1.15925 0.0610008 1.26225 0.164001L4.99825 3.901L8.73925 0.16C8.84225 0.0570001 8.97925 8.92368e-08 9.12525 7.64731e-08C9.27125 6.37094e-08 9.40925 0.057 9.51225 0.16L9.84025 0.487C10.0533 0.7 10.0533 1.047 9.84025 1.261L5.38625 5.731C5.28325 5.834 5.14625 5.906 4.99825 5.906L4.99625 5.906C4.84925 5.906 4.71225 5.833 4.60925 5.731L0.15925 1.273C0.0572504 1.17 0.000249953 1.029 0.00024994 0.882001C0.000249927 0.736001 0.0572498 0.597001 0.16025 0.494001Z" fill="#028ECE"/>
</svg>
