<svg width="24" height="12" viewBox="0 0 24 12" fill="none" xmlns="http://www.w3.org/2000/svg">
<path d="M23.6144 5.06465L18.9081 0.38242C18.4483 -0.0750582 17.6913 -0.143093 17.2079 0.290924C16.6924 0.752156 16.6768 1.54277 17.1612 2.02512L19.2944 4.14782C19.5354 4.38758 19.3646 4.79673 19.0241 4.79673H11.3319C10.6811 4.79673 10.0982 5.28142 10.0642 5.92799C10.0279 6.61679 10.5787 7.18782 11.264 7.18782H19.0241C19.3646 7.18782 19.5354 7.59743 19.2944 7.83673L17.2093 9.91157C16.7495 10.369 16.6816 11.1221 17.1169 11.6026C17.5809 12.1154 18.3761 12.1309 18.8605 11.6495L23.6144 6.91943C24.1294 6.40752 24.1294 5.57655 23.6144 5.06465Z" fill="white"/>
<path d="M6.81099 4.79675H5.42631C4.76273 4.79675 4.22461 5.33212 4.22461 5.9923C4.22461 6.65247 4.76273 7.18784 5.42631 7.18784H6.81099C7.47457 7.18784 8.01222 6.65247 8.01222 5.9923C8.01222 5.33212 7.47457 4.79675 6.81099 4.79675Z" fill="white"/>
<path d="M1.33092 4.79675H1.20123C0.538123 4.79675 0 5.33259 0 5.99276C0 6.65294 0.538123 7.18831 1.20123 7.18831H1.33045C1.9945 7.18831 2.53168 6.65294 2.53168 5.99276C2.53168 5.33259 1.9945 4.79675 1.33092 4.79675Z" fill="white"/>
</svg>
