<svg width="28" height="14" viewBox="0 0 28 14" fill="none" xmlns="http://www.w3.org/2000/svg">
<path d="M0.451137 5.90875L5.94186 0.446146C6.47833 -0.0875781 7.36145 -0.166952 7.92543 0.339401C8.52683 0.877505 8.54499 1.79989 7.97991 2.36263L5.49122 4.83911C5.21006 5.11883 5.40924 5.59618 5.80651 5.59618H14.7807C15.54 5.59618 16.2201 6.16165 16.2597 6.91598C16.3021 7.71958 15.6594 8.38578 14.86 8.38578H5.80651C5.40924 8.38578 5.21006 8.86366 5.49122 9.14284L7.92378 11.5635C8.46026 12.0972 8.53949 12.9758 8.03163 13.5364C7.4902 14.1347 6.56252 14.1527 5.99744 13.5911L0.451137 8.07266C-0.149714 7.47543 -0.149714 6.50597 0.451137 5.90875Z" fill="white"/>
<path d="M20.0529 5.59619H21.6683C22.4425 5.59619 23.0703 6.22079 23.0703 6.99099C23.0703 7.7612 22.4425 8.38579 21.6683 8.38579H20.0529C19.2787 8.38579 18.6514 7.7612 18.6514 6.99099C18.6514 6.22079 19.2787 5.59619 20.0529 5.59619Z" fill="white"/>
<path d="M26.4473 5.59619H26.5986C27.3722 5.59619 28 6.22133 28 6.99154C28 7.76174 27.3722 8.38634 26.5986 8.38634H26.4478C25.6731 8.38634 25.0464 7.76174 25.0464 6.99154C25.0464 6.22133 25.6731 5.59619 26.4473 5.59619Z" fill="white"/>
</svg>
