<svg width="20" height="20" viewBox="0 0 20 20" fill="none" xmlns="http://www.w3.org/2000/svg">
<g clip-path="url(#clip0_284_1984)">
<path d="M8.3859 15.7355C7.41602 15.7355 6.62695 16.5245 6.62695 17.4944C6.62695 18.4643 7.41602 19.2534 8.3859 19.2534C9.35579 19.2534 10.1448 18.4643 10.1448 17.4944C10.1448 16.5245 9.35575 15.7355 8.3859 15.7355ZM8.3859 18.2712C7.95754 18.2712 7.60906 17.9227 7.60906 17.4943C7.60906 17.066 7.95758 16.7175 8.3859 16.7175C8.81422 16.7175 9.16274 17.066 9.16274 17.4943C9.16274 17.9227 8.81422 18.2712 8.3859 18.2712Z" fill="white"/>
<path d="M14.5558 15.7355C13.5859 15.7355 12.7969 16.5245 12.7969 17.4944C12.7969 18.4643 13.5859 19.2534 14.5558 19.2534C15.5257 19.2534 16.3148 18.4643 16.3148 17.4944C16.3147 16.5245 15.5257 15.7355 14.5558 15.7355ZM14.5558 18.2712C14.1275 18.2712 13.779 17.9227 13.779 17.4943C13.779 17.066 14.1275 16.7175 14.5558 16.7175C14.9842 16.7175 15.3327 17.066 15.3327 17.4943C15.3327 17.9227 14.9841 18.2712 14.5558 18.2712Z" fill="white"/>
<path d="M19.779 4.28682C19.5918 4.05698 19.3143 3.92518 19.0177 3.92518H3.72182L3.41292 2.42561C3.34843 2.1128 3.13507 1.85014 2.84206 1.72291L0.686699 0.787364C0.43787 0.679278 0.14869 0.793458 0.0407599 1.04221C-0.0672873 1.29104 0.0468927 1.58026 0.295604 1.68819L2.451 2.62377L4.82702 14.1574C4.92062 14.6116 5.32515 14.9413 5.78894 14.9413H17.5533C17.8245 14.9413 18.0443 14.7215 18.0443 14.4503C18.0443 14.1791 17.8245 13.9592 17.5533 13.9592H5.78898L5.49995 12.5563H17.6442C18.108 12.5563 18.5125 12.2266 18.6061 11.7723L19.9796 5.10534C20.0394 4.81503 19.9663 4.51663 19.779 4.28682ZM17.6442 11.5742H5.29765L3.92417 4.90725L19.0177 4.90729L17.6442 11.5742Z" fill="white"/>
</g>
<defs>
<clipPath id="clip0_284_1984">
<rect width="20" height="20" fill="white"/>
</clipPath>
</defs>
</svg>
