<svg width="127" height="26" viewBox="0 0 127 26" fill="none" xmlns="http://www.w3.org/2000/svg">
<path fill-rule="evenodd" clip-rule="evenodd" d="M0 9.01548L2.41969 4.76074H7.0409L4.62266 9.01186L9.08492 16.7068L14.9007 16.6576L18.9695 9.64141L21.3027 13.5876L21.2989 13.5939L17.2114 20.6427L9.07548 20.7099L9.07185 20.7042L6.78949 20.723L0 9.01548Z" fill="url(#paint0_linear_284_188)"/>
<path fill-rule="evenodd" clip-rule="evenodd" d="M24.406 0L26.9082 4.18246L24.5875 8.13747L22.0877 3.95788H13.1244L10.2468 8.95968L14.3333 15.9242L9.71441 15.9622L9.71076 15.9558L5.60547 8.95896L9.6314 1.96287H9.63851L10.7684 0H24.406Z" fill="url(#paint1_linear_284_188)"/>
<path fill-rule="evenodd" clip-rule="evenodd" d="M25.7522 11.7572L25.7557 11.7507L21.6375 4.76074H13.48H13.472L11.2109 8.75069H19.3317L22.2765 13.7476L17.8237 21.4531L12.926 21.4937L15.2318 25.4836L20.1322 25.4423L26.9077 13.7184L25.7522 11.7572Z" fill="url(#paint2_linear_284_188)"/>
<path d="M33.7317 21.779C34.2759 21.779 34.7237 21.6 35.0543 21.2697L34.8063 20.9325C34.5446 21.2009 34.1588 21.3523 33.7799 21.3523C33.0635 21.3523 32.6226 20.8292 32.5813 20.2029H35.2748V20.0722C35.2748 19.0743 34.6823 18.2897 33.6766 18.2897C32.726 18.2897 32.0371 19.0674 32.0371 20.0309C32.0371 21.0701 32.7466 21.779 33.7317 21.779ZM34.765 19.8244H32.5813C32.6089 19.3151 32.9602 18.7164 33.6697 18.7164C34.4275 18.7164 34.7581 19.3289 34.765 19.8244Z" fill="#F1F3F7"/>
<path d="M37.9784 21.6964L39.363 18.3723H38.7981L37.696 21.0976L36.5869 18.3723H36.0289L37.4135 21.6964H37.9784Z" fill="#F1F3F7"/>
<path d="M41.7688 21.779C42.7814 21.779 43.4151 20.9944 43.4151 20.0309C43.4151 19.0674 42.7814 18.2897 41.7688 18.2897C40.7561 18.2897 40.1224 19.0674 40.1224 20.0309C40.1224 20.9944 40.7561 21.779 41.7688 21.779ZM41.7688 21.3179C41.0592 21.3179 40.6597 20.7122 40.6597 20.0309C40.6597 19.3564 41.0592 18.7508 41.7688 18.7508C42.4783 18.7508 42.8709 19.3564 42.8709 20.0309C42.8709 20.7122 42.4783 21.3179 41.7688 21.3179Z" fill="#F1F3F7"/>
<path d="M45.1873 21.6964V17.1059H44.6707V21.6964H45.1873Z" fill="#F1F3F7"/>
<path d="M49.3936 21.6964V18.3723H48.877V20.8155C48.6841 21.0839 48.2983 21.3179 47.8919 21.3179C47.4441 21.3179 47.1479 21.1458 47.1479 20.5608V18.3723H46.6313V20.7191C46.6313 21.4417 46.9964 21.779 47.6921 21.779C48.1881 21.779 48.6221 21.5174 48.877 21.2284V21.6964H49.3936Z" fill="#F1F3F7"/>
<path d="M51.6791 21.779C51.9822 21.779 52.1682 21.6895 52.2991 21.5656L52.1476 21.1802C52.0787 21.2559 51.9409 21.3179 51.7962 21.3179C51.5689 21.3179 51.4587 21.1389 51.4587 20.8912V18.8265H52.1338V18.3723H51.4587V17.4638H50.942V18.3723H50.3909V18.8265H50.942V21.0013C50.942 21.4968 51.19 21.779 51.6791 21.779Z" fill="#F1F3F7"/>
<path d="M53.5318 17.8974C53.7247 17.8974 53.8831 17.746 53.8831 17.5533C53.8831 17.3606 53.7247 17.2023 53.5318 17.2023C53.3458 17.2023 53.1874 17.3606 53.1874 17.5533C53.1874 17.746 53.3458 17.8974 53.5318 17.8974ZM53.7936 21.6964V18.3723H53.2769V21.6964H53.7936Z" fill="#F1F3F7"/>
<path d="M56.691 21.779C57.7036 21.779 58.3374 20.9944 58.3374 20.0309C58.3374 19.0674 57.7036 18.2897 56.691 18.2897C55.6784 18.2897 55.0446 19.0674 55.0446 20.0309C55.0446 20.9944 55.6784 21.779 56.691 21.779ZM56.691 21.3179C55.9814 21.3179 55.5819 20.7122 55.5819 20.0309C55.5819 19.3564 55.9814 18.7508 56.691 18.7508C57.4005 18.7508 57.7932 19.3564 57.7932 20.0309C57.7932 20.7122 57.4005 21.3179 56.691 21.3179Z" fill="#F1F3F7"/>
<path d="M62.3553 21.6964V19.3633C62.3553 18.6407 61.9902 18.2897 61.2944 18.2897C60.7984 18.2897 60.3438 18.5787 60.1096 18.854V18.3723H59.5929V21.6964H60.1096V19.267C60.3025 18.9985 60.6882 18.7508 61.0946 18.7508C61.5424 18.7508 61.8386 18.9366 61.8386 19.5216V21.6964H62.3553Z" fill="#F1F3F7"/>
<path d="M67.4432 21.779C68.4558 21.779 69.0895 20.9944 69.0895 20.0309C69.0895 19.0674 68.4558 18.2897 67.4432 18.2897C66.4305 18.2897 65.7968 19.0674 65.7968 20.0309C65.7968 20.9944 66.4305 21.779 67.4432 21.779ZM67.4432 21.3179C66.7336 21.3179 66.3341 20.7122 66.3341 20.0309C66.3341 19.3564 66.7336 18.7508 67.4432 18.7508C68.1527 18.7508 68.5453 19.3564 68.5453 20.0309C68.5453 20.7122 68.1527 21.3179 67.4432 21.3179Z" fill="#F1F3F7"/>
<path d="M71.0064 21.6964V18.8265H71.6815V18.3723H71.0064V18.1176C71.0064 17.6978 71.1924 17.4638 71.5299 17.4638C71.7022 17.4638 71.833 17.5326 71.9433 17.629L72.1568 17.2918C71.9502 17.099 71.7159 17.0371 71.4542 17.0371C70.8618 17.0371 70.4898 17.4363 70.4898 18.1176V18.3723H69.9387V18.8265H70.4898V21.6964H71.0064Z" fill="#F1F3F7"/>
<path d="M74.7126 22.9971C74.809 23.0247 74.9813 23.0453 75.0915 23.0453C75.5324 23.0384 75.8699 22.8526 76.0697 22.3708L77.7367 18.3723H77.1718L76.0697 21.0976L74.9606 18.3723H74.4026L75.7941 21.7308L75.5737 22.2332C75.4566 22.5085 75.305 22.5842 75.0777 22.5842C74.995 22.5842 74.871 22.5635 74.7953 22.5291L74.7126 22.9971Z" fill="#F1F3F7"/>
<path d="M80.1425 21.779C81.1551 21.779 81.7888 20.9944 81.7888 20.0309C81.7888 19.0674 81.1551 18.2897 80.1425 18.2897C79.1298 18.2897 78.4961 19.0674 78.4961 20.0309C78.4961 20.9944 79.1298 21.779 80.1425 21.779ZM80.1425 21.3179C79.4329 21.3179 79.0334 20.7122 79.0334 20.0309C79.0334 19.3564 79.4329 18.7508 80.1425 18.7508C80.852 18.7508 81.2446 19.3564 81.2446 20.0309C81.2446 20.7122 80.852 21.3179 80.1425 21.3179Z" fill="#F1F3F7"/>
<path d="M85.8067 21.6964V18.3723H85.2901V20.8155C85.0972 21.0839 84.7115 21.3179 84.305 21.3179C83.8573 21.3179 83.5611 21.1458 83.5611 20.5608V18.3723H83.0444V20.7191C83.0444 21.4417 83.4095 21.779 84.1053 21.779C84.6012 21.779 85.0352 21.5174 85.2901 21.2284V21.6964H85.8067Z" fill="#F1F3F7"/>
<path d="M87.7685 21.6964V19.3427C87.92 19.0743 88.354 18.8127 88.6709 18.8127C88.7536 18.8127 88.8156 18.8196 88.8776 18.8334V18.3034C88.4229 18.3034 88.0371 18.5581 87.7685 18.9091V18.3723H87.2518V21.6964H87.7685Z" fill="#F1F3F7"/>
<path d="M92.6449 20.7948V19.2876C92.824 18.9985 93.2304 18.7508 93.6369 18.7508C94.3119 18.7508 94.7115 19.3014 94.7115 20.0378C94.7115 20.7742 94.3119 21.3179 93.6369 21.3179C93.2304 21.3179 92.824 21.0839 92.6449 20.7948ZM92.6449 21.6964V21.2009C92.8929 21.5381 93.2993 21.779 93.7677 21.779C94.6357 21.779 95.2488 21.1183 95.2488 20.0378C95.2488 18.9779 94.6357 18.2897 93.7677 18.2897C93.3131 18.2897 92.9135 18.5099 92.6449 18.8747V17.1059H92.1282V21.6964H92.6449Z" fill="#F1F3F7"/>
<path d="M99.2662 21.6964V18.3723H98.7496V20.8155C98.5567 21.0839 98.1709 21.3179 97.7645 21.3179C97.3167 21.3179 97.0205 21.1458 97.0205 20.5608V18.3723H96.5039V20.7191C96.5039 21.4417 96.869 21.779 97.5647 21.779C98.0607 21.779 98.4947 21.5174 98.7496 21.2284V21.6964H99.2662Z" fill="#F1F3F7"/>
<path d="M101.765 21.779C102.626 21.779 103.074 21.3316 103.074 20.7742C103.074 19.4803 101.014 19.9621 101.014 19.2325C101.014 18.9366 101.297 18.7095 101.751 18.7095C102.179 18.7095 102.544 18.8884 102.743 19.1293L102.985 18.7714C102.716 18.503 102.316 18.2897 101.751 18.2897C100.959 18.2897 100.512 18.7301 100.512 19.2463C100.512 20.4782 102.571 19.9827 102.571 20.7879C102.571 21.1183 102.296 21.3592 101.786 21.3592C101.331 21.3592 100.911 21.1389 100.691 20.8843L100.422 21.2559C100.76 21.6138 101.221 21.779 101.765 21.779Z" fill="#F1F3F7"/>
<path d="M104.582 17.8974C104.775 17.8974 104.933 17.746 104.933 17.5533C104.933 17.3606 104.775 17.2023 104.582 17.2023C104.396 17.2023 104.237 17.3606 104.237 17.5533C104.237 17.746 104.396 17.8974 104.582 17.8974ZM104.843 21.6964V18.3723H104.327V21.6964H104.843Z" fill="#F1F3F7"/>
<path d="M109.05 21.6964V19.3633C109.05 18.6407 108.685 18.2897 107.989 18.2897C107.493 18.2897 107.038 18.5787 106.804 18.854V18.3723H106.287V21.6964H106.804V19.267C106.997 18.9985 107.383 18.7508 107.789 18.7508C108.237 18.7508 108.533 18.9366 108.533 19.5216V21.6964H109.05Z" fill="#F1F3F7"/>
<path d="M111.997 21.779C112.541 21.779 112.988 21.6 113.319 21.2697L113.071 20.9325C112.809 21.2009 112.424 21.3523 112.045 21.3523C111.328 21.3523 110.887 20.8292 110.846 20.2029H113.54V20.0722C113.54 19.0743 112.947 18.2897 111.941 18.2897C110.991 18.2897 110.302 19.0674 110.302 20.0309C110.302 21.0701 111.011 21.779 111.997 21.779ZM113.03 19.8244H110.846C110.874 19.3151 111.225 18.7164 111.935 18.7164C112.692 18.7164 113.023 19.3289 113.03 19.8244Z" fill="#F1F3F7"/>
<path d="M115.844 21.779C116.705 21.779 117.152 21.3316 117.152 20.7742C117.152 19.4803 115.093 19.9621 115.093 19.2325C115.093 18.9366 115.375 18.7095 115.83 18.7095C116.257 18.7095 116.622 18.8884 116.822 19.1293L117.063 18.7714C116.794 18.503 116.395 18.2897 115.83 18.2897C115.038 18.2897 114.59 18.7301 114.59 19.2463C114.59 20.4782 116.65 19.9827 116.65 20.7879C116.65 21.1183 116.374 21.3592 115.864 21.3592C115.41 21.3592 114.989 21.1389 114.769 20.8843L114.5 21.2559C114.838 21.6138 115.299 21.779 115.844 21.779Z" fill="#F1F3F7"/>
<path d="M119.459 21.779C120.32 21.779 120.768 21.3316 120.768 20.7742C120.768 19.4803 118.708 19.9621 118.708 19.2325C118.708 18.9366 118.991 18.7095 119.445 18.7095C119.872 18.7095 120.238 18.8884 120.437 19.1293L120.678 18.7714C120.41 18.503 120.01 18.2897 119.445 18.2897C118.653 18.2897 118.205 18.7301 118.205 19.2463C118.205 20.4782 120.265 19.9827 120.265 20.7879C120.265 21.1183 119.99 21.3592 119.48 21.3592C119.025 21.3592 118.605 21.1389 118.384 20.8843L118.116 21.2559C118.453 21.6138 118.915 21.779 119.459 21.779Z" fill="#F1F3F7"/>
<path d="M42.7489 14.1692L45.2805 5.85895H43.0073L41.4573 11.4508L39.6318 5.85895H37.6858L35.8603 11.4508L34.3104 5.85895H32.0371L34.5687 14.1692H36.9108L38.6674 8.50861L40.424 14.1692H42.7489Z" fill="white"/>
<path d="M50.6115 14.3757C51.9031 14.3757 53.212 13.98 54.0386 13.2229L53.0742 11.8121C52.5403 12.3283 51.5587 12.638 50.8526 12.638C49.4405 12.638 48.5966 11.7605 48.4588 10.7109H54.6414V10.2292C54.6414 7.51068 52.9537 5.65248 50.4737 5.65248C47.9422 5.65248 46.1684 7.59671 46.1684 10.0055C46.1684 12.6724 48.08 14.3757 50.6115 14.3757ZM52.5231 9.23124H48.4244C48.5277 8.40538 49.1132 7.39024 50.4737 7.39024C51.9204 7.39024 52.4715 8.43979 52.5231 9.23124Z" fill="white"/>
<path d="M58.7528 11.5024V8.56023C59.1144 8.00965 59.9238 7.59671 60.6299 7.59671C61.9043 7.59671 62.7482 8.57743 62.7482 10.0227C62.7482 11.468 61.9043 12.4315 60.6299 12.4315C59.9238 12.4315 59.1144 12.0358 58.7528 11.5024ZM58.7528 14.1692V13.1025C59.4072 13.9284 60.3199 14.3757 61.3188 14.3757C63.4198 14.3757 65.0042 12.7928 65.0042 10.0227C65.0042 7.30422 63.437 5.65248 61.3188 5.65248C60.3371 5.65248 59.4072 6.08262 58.7528 6.92569V2.69312H56.5656V14.1692H58.7528Z" fill="white"/>
<path d="M70.8584 14.3757C73.6139 14.3757 75.2672 12.3799 75.2672 10.0055C75.2672 7.64833 73.6139 5.65248 70.8584 5.65248C68.1202 5.65248 66.4669 7.64833 66.4669 10.0055C66.4669 12.3799 68.1202 14.3757 70.8584 14.3757ZM70.8584 12.4315C69.4979 12.4315 68.7402 11.3131 68.7402 10.0055C68.7402 8.71508 69.4979 7.59671 70.8584 7.59671C72.219 7.59671 72.9939 8.71508 72.9939 10.0055C72.9939 11.3131 72.219 12.4315 70.8584 12.4315Z" fill="white"/>
<path d="M79.4213 14.1692V2.69312H77.2342V14.1692H79.4213Z" fill="white"/>
<path d="M89.7358 14.1692V5.85895H87.5487V11.4852C87.1698 11.9669 86.4982 12.4315 85.6543 12.4315C84.7244 12.4315 84.1216 12.053 84.1216 10.9002V5.85895H81.9345V11.7605C81.9345 13.3778 82.7956 14.3757 84.621 14.3757C85.9815 14.3757 86.9804 13.7563 87.5487 13.1197V14.1692H89.7358Z" fill="white"/>
<path d="M95.0418 14.3757C95.9546 14.3757 96.5401 14.1348 96.8673 13.8423L96.4024 12.1906C96.2818 12.311 95.9718 12.4315 95.6446 12.4315C95.1624 12.4315 94.8868 12.0358 94.8868 11.5196V7.76877H96.5746V5.85895H94.8868V3.58781H92.6825V5.85895H91.3048V7.76877H92.6825V12.1046C92.6825 13.5843 93.5091 14.3757 95.0418 14.3757Z" fill="white"/>
<path d="M99.5003 4.96426C100.224 4.96426 100.809 4.37927 100.809 3.65663C100.809 2.934 100.224 2.36621 99.5003 2.36621C98.7943 2.36621 98.1915 2.934 98.1915 3.65663C98.1915 4.37927 98.7943 4.96426 99.5003 4.96426ZM100.603 14.1692V5.85895H98.4154V14.1692H100.603Z" fill="white"/>
<path d="M106.973 14.3757C109.729 14.3757 111.382 12.3799 111.382 10.0055C111.382 7.64833 109.729 5.65248 106.973 5.65248C104.235 5.65248 102.582 7.64833 102.582 10.0055C102.582 12.3799 104.235 14.3757 106.973 14.3757ZM106.973 12.4315C105.613 12.4315 104.855 11.3131 104.855 10.0055C104.855 8.71508 105.613 7.59671 106.973 7.59671C108.334 7.59671 109.109 8.71508 109.109 10.0055C109.109 11.3131 108.334 12.4315 106.973 12.4315Z" fill="white"/>
<path d="M121.15 14.1692V8.30214C121.15 6.68482 120.272 5.65248 118.447 5.65248C117.086 5.65248 116.07 6.30629 115.536 6.9429V5.85895H113.349V14.1692H115.536V8.57743C115.898 8.07847 116.569 7.59671 117.431 7.59671C118.361 7.59671 118.963 7.99244 118.963 9.14522V14.1692H121.15Z" fill="white"/>
<g clip-path="url(#clip0_284_188)">
<path d="M126.999 4.47972L126.994 4.42947C126.991 4.39547 126.988 4.36124 126.984 4.32823C126.94 3.91043 126.798 3.52577 126.563 3.18525C126.214 2.67833 125.735 2.33793 125.139 2.1736C124.979 2.12922 124.81 2.10219 124.635 2.09315L124.608 2.08887L124.377 2.08911L124.223 2.10366C123.913 2.13655 123.619 2.22459 123.349 2.36544C122.799 2.65436 122.4 3.0927 122.164 3.66846C122.073 3.89344 122.017 4.13345 121.996 4.38007C121.993 4.41369 121.989 4.44719 121.986 4.48559L121.987 4.71105L121.991 4.76069C121.994 4.79493 121.997 4.82929 122.001 4.86254C122.045 5.2785 122.187 5.66255 122.421 6.00393C122.723 6.44385 123.128 6.76126 123.627 6.94735C123.902 7.05018 124.188 7.10227 124.475 7.10227C124.523 7.10227 124.57 7.1008 124.619 7.09799C125.344 7.05471 125.951 6.75062 126.421 6.19381C126.708 5.85537 126.89 5.45763 126.963 5.01257C126.974 4.95302 126.979 4.89287 126.985 4.83271C126.988 4.8008 126.992 4.76889 126.997 4.72572L126.999 4.71142L126.999 4.47972ZM124.497 2.47866L124.5 2.53967C125.631 2.54114 126.551 3.46427 126.549 4.59734C126.547 5.73029 125.625 6.65195 124.492 6.65195C123.943 6.65134 123.426 6.43688 123.038 6.04819C122.65 5.65962 122.437 5.14352 122.437 4.59526C122.439 3.46183 123.362 2.53967 124.497 2.53967V2.47866Z" fill="white"/>
<path d="M123.492 3.23828C123.485 3.23828 123.478 3.23914 123.468 3.24073L123.414 3.24696V6.08043H123.876V4.87278L124.054 4.87241C124.107 4.87241 124.161 4.87253 124.217 4.87326C124.271 4.874 124.327 4.87461 124.378 4.88378C124.465 4.89931 124.539 4.94345 124.598 5.01497C124.657 5.08724 124.734 5.18346 124.799 5.28715C124.92 5.47935 125.038 5.67376 125.156 5.86817L125.257 6.03421C125.266 6.04729 125.289 6.08214 125.341 6.08214H125.342C125.412 6.08165 125.482 6.08165 125.551 6.08165H125.725C125.732 6.08165 125.738 6.08104 125.754 6.07933L125.847 6.07138L125.802 5.98885C125.795 5.97625 125.789 5.96745 125.785 5.95987L125.685 5.79542C125.614 5.67657 125.542 5.55785 125.469 5.43974C125.39 5.31343 125.309 5.18285 125.221 5.05875C125.149 4.95555 125.07 4.87326 124.979 4.8092C125.004 4.80272 125.029 4.79575 125.054 4.78804C125.259 4.72336 125.409 4.60696 125.499 4.44165C125.631 4.19919 125.638 3.9406 125.521 3.67283C125.436 3.48037 125.298 3.35346 125.11 3.2955C124.987 3.25809 124.85 3.24036 124.68 3.23963C124.412 3.2384 124.144 3.23828 123.876 3.23828H123.492ZM123.876 4.4397V3.66219H124.141C124.326 3.66219 124.51 3.66243 124.695 3.66488C124.748 3.66561 124.807 3.67527 124.872 3.69373C125.023 3.73677 125.119 3.86222 125.123 4.02129C125.128 4.17926 125.071 4.29187 124.95 4.36573C124.892 4.40106 124.822 4.42124 124.732 4.42918C124.66 4.43542 124.587 4.43884 124.513 4.43933C124.419 4.43982 124.325 4.44006 124.231 4.44006L123.876 4.4397Z" fill="white"/>
</g>
<defs>
<linearGradient id="paint0_linear_284_188" x1="-0.0493174" y1="4.85082" x2="17.2313" y2="20.2091" gradientUnits="userSpaceOnUse">
<stop stop-color="#F97695"/>
<stop offset="1" stop-color="#FEDD44"/>
</linearGradient>
<linearGradient id="paint1_linear_284_188" x1="23.2328" y1="-0.897601" x2="10.3631" y2="16.1778" gradientUnits="userSpaceOnUse">
<stop stop-color="#4AB1FE"/>
<stop offset="1" stop-color="#07EBFE"/>
</linearGradient>
<linearGradient id="paint2_linear_284_188" x1="19.0473" y1="25.4706" x2="16.1367" y2="4.72309" gradientUnits="userSpaceOnUse">
<stop stop-color="#F3648A"/>
<stop offset="1" stop-color="#FF83D4"/>
</linearGradient>
<clipPath id="clip0_284_188">
<rect width="5.01316" height="5.0134" fill="white" transform="translate(121.986 2.08887)"/>
</clipPath>
</defs>
</svg>
