<svg width="18" height="18" viewBox="0 0 18 18" fill="none" xmlns="http://www.w3.org/2000/svg">
<g clip-path="url(#clip0_284_1958)">
<path d="M15.3401 2.61394C13.6476 0.92932 11.396 0.000949219 8.99958 0C6.60859 0 4.3534 0.927527 2.64971 2.61172C0.942988 4.2988 0.00221697 6.54086 0 8.91664V8.91939V8.92104C0.000281521 10.359 0.378434 11.8096 1.09624 13.1337L0.0245979 18L4.95163 16.8803C6.1995 17.5086 7.59183 17.8399 8.99616 17.8404H8.99975C11.3904 17.8404 13.6455 16.9128 15.3495 15.2284C17.0577 13.54 17.9989 11.3008 18 8.9235C18.0007 6.56297 17.0562 4.32214 15.3401 2.61394ZM8.99958 16.4355H8.99641C7.73548 16.435 6.48609 16.1187 5.38352 15.5207L5.15052 15.3943L1.87426 16.1388L2.58591 12.9077L2.44874 12.6714C1.76665 11.4962 1.40623 10.199 1.40623 8.91953C1.40883 4.77809 4.81485 1.40488 8.9993 1.40488C11.0208 1.40569 12.9202 2.18862 14.3476 3.60914C15.7966 5.05164 16.5943 6.93882 16.5936 8.92308C16.592 13.0655 13.1853 16.4355 8.99958 16.4355Z" fill="#40AC69"/>
<path d="M6.55072 4.98743H6.1562C6.01889 4.98743 5.79593 5.03879 5.60731 5.24382C5.41858 5.44899 4.88672 5.94487 4.88672 6.95343C4.88672 7.96199 5.62448 8.93645 5.7273 9.07339C5.83027 9.21018 7.15141 11.3459 9.24385 12.1676C10.9829 12.8504 11.3369 12.7146 11.7142 12.6803C12.0916 12.6463 12.9322 12.1846 13.1037 11.706C13.2753 11.2274 13.2753 10.8171 13.2239 10.7314C13.1723 10.6459 13.035 10.5947 12.8292 10.4923C12.6233 10.3897 11.6144 9.88539 11.4256 9.81687C11.2369 9.74863 11.0997 9.71443 10.9624 9.91974C10.825 10.1246 10.4207 10.5987 10.3006 10.7355C10.1806 10.8724 10.0605 10.8896 9.85454 10.787C9.64861 10.6841 8.99238 10.4639 8.20595 9.76565C7.59382 9.22224 7.16908 8.52927 7.04894 8.3241C6.92894 8.11907 7.03617 8.00812 7.13938 7.90581C7.23189 7.81409 7.35685 7.68855 7.45978 7.56895C7.56261 7.44921 7.59189 7.36378 7.66061 7.22698C7.7292 7.09019 7.69485 6.97045 7.64344 6.868C7.59189 6.76542 7.19684 5.75179 7.01371 5.34641H7.01385C6.85976 5.005 6.69739 4.99347 6.55072 4.98743Z" fill="#40AC69"/>
</g>
<defs>
<clipPath id="clip0_284_1958">
<rect width="18" height="18" fill="white"/>
</clipPath>
</defs>
</svg>
