<svg width="80" height="32" viewBox="0 0 80 32" fill="none" xmlns="http://www.w3.org/2000/svg">
<path d="M30.7719 5.74694C24.6183 4.44206 18.1082 4.26068 11.4227 5.20784C9.99062 5.41078 8.73509 6.16646 7.88712 7.33611C7.04302 8.50019 6.71629 9.92044 6.96706 11.335C7.08125 11.9786 7.19392 12.5804 7.30187 13.1232C7.78994 15.5763 8.31944 17.7878 8.87571 19.6963C9.7247 22.6088 12.0689 24.7881 14.9956 25.384L15.1972 25.4246C16.302 25.6422 17.4289 25.7525 18.5463 25.7525C25.9988 25.7525 32.6209 20.984 35.0246 13.8866L35.1706 13.455C35.7127 11.852 35.5431 10.0897 34.7056 8.6196C33.8665 7.14597 32.4325 6.09893 30.7719 5.74694ZM33.5725 12.9245L33.4297 13.3462C31.2578 19.7593 25.2767 24.0682 18.5465 24.0682C17.538 24.0682 16.5208 23.9685 15.5261 23.7726L15.3297 23.7332C13.0196 23.263 11.166 21.5354 10.4927 19.2249C9.95004 17.3632 9.43233 15.1998 8.95369 12.7944C8.84793 12.2631 8.73744 11.6731 8.62545 11.0411C8.45518 10.0803 8.67715 9.11558 9.25061 8.32471C9.82793 7.52827 10.6833 7.01376 11.6588 6.87549C18.1488 5.95611 24.4619 6.13076 30.4224 7.39455C31.613 7.647 32.6408 8.39746 33.2426 9.45325C33.8423 10.5057 33.9637 11.7676 33.5725 12.9245Z" fill="white"/>
<path d="M30.2402 8.25194C26.8712 7.53752 23.3315 7.17526 19.7195 7.17526C18.762 7.17526 17.7822 7.20154 16.8072 7.25324C16.3429 7.27783 15.9864 7.67428 16.011 8.13877C16.0356 8.60326 16.4332 8.95895 16.8965 8.93504C17.8418 8.88485 18.7915 8.85942 19.7195 8.85942C23.2143 8.85942 26.6363 9.20938 29.8909 9.89938C30.3739 10.0018 30.7739 10.2935 31.0175 10.7207C31.259 11.1446 31.3058 11.6327 31.1495 12.095C31.0004 12.5356 31.2369 13.0136 31.6775 13.1624C31.7669 13.1927 31.8579 13.2071 31.9473 13.2071C32.2984 13.2071 32.6262 12.9856 32.7449 12.6344C33.0575 11.7102 32.9637 10.7346 32.4808 9.88692C31.9958 9.03609 31.2 8.45539 30.2402 8.25194Z" fill="white"/>
<path d="M72.6988 13.123C72.8066 12.5807 72.9192 11.9792 73.0334 11.3348C73.2842 9.92027 72.9575 8.50002 72.1135 7.33611C71.2656 6.16646 70.0099 5.41061 68.5778 5.20784C61.8922 4.26084 55.3821 4.44223 49.2287 5.74694C47.5682 6.09893 46.1341 7.14597 45.2947 8.61943C44.4572 10.0895 44.2878 11.8518 44.8295 13.4545L44.9757 13.8865C47.3792 20.9838 54.0015 25.7523 61.454 25.7523C62.5714 25.7523 63.6982 25.642 64.8062 25.4238L65.0066 25.3835C67.9313 24.7881 70.2756 22.6089 71.1244 19.6963C71.6807 17.789 72.2104 15.5775 72.6988 13.123ZM69.508 19.2249C68.8345 21.5354 66.9811 23.2628 64.6729 23.7327L64.4776 23.7719C63.4799 23.9685 62.4627 24.0682 61.4542 24.0682C54.724 24.0682 48.7429 19.7594 46.571 13.3462L46.4253 12.9152C46.0371 11.7675 46.1585 10.5055 46.7582 9.45292C47.3598 8.39695 48.3878 7.64666 49.5784 7.39421C53.0324 6.66194 56.604 6.2953 60.2604 6.2953C62.914 6.2953 65.6127 6.48847 68.3419 6.87515C69.3175 7.01342 70.1729 7.5281 70.7502 8.32437C71.3237 9.11525 71.5458 10.0799 71.3755 11.0404C71.2632 11.6731 71.1527 12.2633 71.0471 12.7939C70.5682 15.2009 70.0503 17.3644 69.508 19.2249Z" fill="white"/>
<path d="M68.2189 7.74316C65.5584 7.36642 62.8877 7.17526 60.2806 7.17526C59.2706 7.17526 58.2527 7.20406 57.2552 7.26082C56.7909 7.28726 56.436 7.68506 56.4623 8.14938C56.4887 8.6137 56.8859 8.96973 57.3509 8.94228C58.3166 8.88738 59.3023 8.85942 60.2806 8.85942C62.8089 8.85942 65.4001 9.04485 67.9826 9.41064C68.2643 9.45056 68.5109 9.5986 68.677 9.82764C68.8413 10.0543 68.9025 10.3192 68.854 10.5938C68.7728 11.0517 69.0781 11.4887 69.5362 11.5699C69.5859 11.5787 69.6352 11.583 69.6841 11.583C70.0847 11.583 70.4399 11.2959 70.5122 10.8878C70.6407 10.1633 70.4731 9.43574 70.0404 8.83921C69.6039 8.23679 68.957 7.84758 68.2189 7.74316Z" fill="white"/>
<path d="M79.8033 29.1233L73.269 21.328C73.3858 21.0294 73.4913 20.7246 73.5822 20.4127C74.8822 15.953 75.7186 10.9806 76.0037 9.15108H77.6688C78.134 9.15108 78.5109 8.774 78.5109 8.30901V4.21213C78.5109 3.83892 78.2652 3.51018 77.9071 3.40441C62.2665 -1.2095 50.2085 1.29248 44.4133 3.1949C41.5262 4.14258 38.474 4.14275 35.5865 3.1949C29.7913 1.29265 17.734 -1.20966 2.09272 3.40441C1.73467 3.51001 1.48895 3.83892 1.48895 4.21213V8.30901C1.48895 8.774 1.86603 9.15108 2.33103 9.15108H3.99615C4.28128 10.9806 5.1178 15.953 6.41763 20.4128C6.50857 20.7248 6.614 21.0296 6.73088 21.3282L0.196697 29.1233C0.0385554 29.3121 -0.0291476 29.5607 0.0116089 29.8037C0.0525339 30.0465 0.19754 30.2596 0.408901 30.3862C1.33754 30.9435 2.36286 31.2147 3.37908 31.2147C4.90492 31.2147 6.40971 30.6025 7.53321 29.4271L10.5952 26.2232C11.7685 27.0351 13.113 27.6166 14.5662 27.9092L14.7025 27.9363C15.9789 28.1879 17.2543 28.3093 18.5166 28.3092C25.8681 28.3088 32.73 24.1855 36.1921 17.6321L43.3245 16.6442C46.5983 23.768 53.7696 28.3095 61.4836 28.3092C62.745 28.3092 64.0216 28.1877 65.2975 27.9363L65.4159 27.9127C66.8759 27.6195 68.2259 27.0363 69.4036 26.2215L72.467 29.4269C73.5905 30.6025 75.0951 31.2145 76.6211 31.2145C77.6371 31.2145 78.6626 30.943 79.5913 30.3861C79.8026 30.2593 79.9476 30.0464 79.9884 29.8035C80.0291 29.5607 79.9614 29.3121 79.8033 29.1233ZM6.31557 28.2637C5.23063 29.3988 3.64349 29.7912 2.20118 29.3537L7.545 22.9787C8.03105 23.7815 8.6173 24.5119 9.28726 25.1541L6.31557 28.2637ZM37.0339 15.8154C37.1816 15.4517 37.3227 15.0837 37.45 14.7078C37.8823 13.4312 38.264 12.2978 38.5501 11.4451C38.7593 10.8218 39.342 10.4029 39.9998 10.4029C40.6577 10.4029 41.2404 10.8218 41.4496 11.4451C41.7357 12.2976 42.1173 13.431 42.5496 14.7076C42.587 14.8179 42.6288 14.9257 42.6679 15.035L37.0339 15.8154ZM65.0851 26.2616L64.972 26.284C56.0345 28.0456 47.081 22.8363 44.1449 14.1675C43.7132 12.8926 43.3323 11.7605 43.0465 10.9092C42.6066 9.59907 41.3824 8.71893 40 8.71893C38.6176 8.71893 37.3933 9.59923 36.9537 10.9092C36.6679 11.7605 36.2868 12.8926 35.855 14.1675C32.919 22.8365 23.965 28.0454 15.0279 26.284L14.8989 26.2582C11.6073 25.5957 8.9772 23.1754 8.03458 19.9416C6.44794 14.4984 5.56359 8.25477 5.55483 8.19229C5.49656 7.77647 5.14087 7.46693 4.72084 7.46693H3.1731V4.8447C18.0811 0.599285 29.5269 2.97815 35.0612 4.79502C38.2923 5.85587 41.7079 5.85553 44.9386 4.79502C50.4729 2.97849 61.9194 0.599622 76.8267 4.8447V7.46693H75.279C74.8591 7.46693 74.5033 7.77631 74.445 8.19229C74.4362 8.25477 73.5532 14.4942 71.9656 19.9415C71.0223 23.1771 68.3856 25.5989 65.0851 26.2616ZM73.6844 28.2637L70.7116 25.1529C71.3817 24.5107 71.9683 23.7806 72.4545 22.9781L77.7988 29.3539C76.3567 29.7914 74.7692 29.3988 73.6844 28.2637Z" fill="white"/>
</svg>
