<svg width="60" height="60" viewBox="0 0 60 60" fill="none" xmlns="http://www.w3.org/2000/svg">
<g clip-path="url(#clip0_284_1830)">
<path d="M44.1798 3.5025C37.395 3.5025 31.875 9.02239 31.875 15.8072C31.875 22.592 37.395 28.1119 44.1798 28.1119C50.9646 28.1119 56.4845 22.592 56.4845 15.8072C56.4845 9.02239 50.9646 3.5025 44.1798 3.5025V3.5025ZM44.1798 26.3541C38.3641 26.3541 33.6328 21.6227 33.6328 15.8072C33.6328 9.99164 38.3641 5.26032 44.1798 5.26032C49.9954 5.26032 54.7267 9.99164 54.7267 15.8072C54.7267 21.6227 49.9954 26.3541 44.1798 26.3541Z" fill="white"/>
<path d="M15.8203 56.4712C22.6051 56.4712 28.125 50.9513 28.125 44.1665C28.125 37.3817 22.6051 31.8618 15.8203 31.8618C9.03551 31.8618 3.51562 37.3817 3.51562 44.1665C3.51562 50.9513 9.03551 56.4712 15.8203 56.4712ZM15.8203 33.6197C21.6359 33.6197 26.3672 38.351 26.3672 44.1666C26.3672 49.9821 21.6359 54.7135 15.8203 54.7135C10.0048 54.7135 5.27344 49.9821 5.27344 44.1666C5.27344 38.351 10.0048 33.6197 15.8203 33.6197Z" fill="white"/>
<path d="M34.9316 36.1547L36.1903 34.9277L37.4174 36.1863L36.1587 37.4134L34.9316 36.1547Z" fill="white"/>
<path d="M21.0386 46.0783L19.7957 44.8353L17.7327 46.8981L11.8464 41.0119L10.6035 42.2548L17.7327 49.384L21.0386 46.0783Z" fill="white"/>
<path d="M45.8376 14.3903C45.864 13.5446 45.5587 12.7591 44.9783 12.1785C44.3977 11.598 43.6113 11.2912 42.7665 11.3192C41.9451 11.3447 41.171 11.6807 40.5866 12.2651L38.3984 14.453L45.5314 21.5883L46.7745 20.3457L44.1815 17.7518L49.4332 18.0866L49.545 16.3323L45.3058 16.0621C45.6332 15.5673 45.8189 14.9916 45.8376 14.3903V14.3903ZM40.8845 14.4532L41.8296 13.5081C42.0927 13.245 42.4541 13.0875 42.8212 13.0761C43.1769 13.0657 43.5015 13.1876 43.7354 13.4215C43.9691 13.6553 44.0918 13.9799 44.0806 14.3355C44.0691 14.7026 43.9118 15.0641 43.646 15.3299L42.7073 16.2767L40.8845 14.4532Z" fill="white"/>
<path d="M45.3086 7.66113H47.0664V9.41895H45.3086V7.66113Z" fill="white"/>
<path d="M48.8242 9.41895H50.582V11.1768H48.8242V9.41895Z" fill="white"/>
<path d="M60 15.8336C60 7.11027 52.903 0.0132751 44.1797 0.0132751C35.5085 0.0132751 28.4455 7.02589 28.3614 15.6776C27.1054 20.0844 20.1 27.0903 15.6926 28.3477C11.8767 28.3784 8.2077 29.7821 5.34809 32.3097L6.51223 33.6268C9.08227 31.3551 12.3879 30.104 15.8204 30.104C23.5745 30.104 29.8829 36.4124 29.8829 44.1665C29.8829 51.9205 23.5745 58.229 15.8204 58.229C8.06637 58.229 1.75793 51.9205 1.75793 44.1665C1.75793 40.7181 3.01934 37.4008 5.30988 34.8255L3.99633 33.6572C1.41914 36.5547 0 40.287 0 44.1665C0 52.8898 7.09699 59.9868 15.8203 59.9868C24.4997 59.9868 31.568 52.9609 31.639 44.298C32.0821 42.7444 33.2914 40.7523 35.0591 38.6717L33.7194 37.5335C32.7517 38.6726 31.9341 39.801 31.294 40.8696C29.9993 34.7866 25.1982 29.986 19.1148 28.6922C20.8254 27.6678 22.678 26.1964 24.4438 24.4307C26.2071 22.6674 27.6769 20.8175 28.7012 19.1087C29.9866 25.1908 34.7767 29.9945 40.8512 31.3005C39.7931 31.9369 38.6773 32.7464 37.5507 33.7032L38.6885 35.0431C40.7269 33.3121 42.6797 32.117 44.2181 31.6534C52.9238 31.6326 60 24.544 60 15.8336V15.8336ZM44.1797 29.896C36.4256 29.896 30.1172 23.5875 30.1172 15.8335C30.1172 8.07941 36.4256 1.77097 44.1797 1.77097C51.9337 1.77097 58.2422 8.07941 58.2422 15.8335C58.2422 23.5875 51.9337 29.896 44.1797 29.896Z" fill="white"/>
</g>
<defs>
<clipPath id="clip0_284_1830">
<rect width="60" height="60" fill="white"/>
</clipPath>
</defs>
</svg>
