<svg width="384" height="209" viewBox="0 0 384 209" fill="none" xmlns="http://www.w3.org/2000/svg">
<path d="M116.5 40C140 29.3182 181 27.6957 223 35C265 42.3044 323 113 326 125.5C329 138 263 172 182 172C101 172 24.4996 139.5 23.4996 133C22.4996 126.5 45.9996 93 62.4996 76.5C78.9996 60 92.9997 50.6818 116.5 40Z" fill="white"/>
<g clip-path="url(#clip0_327_160)">
<path fill-rule="evenodd" clip-rule="evenodd" d="M237.539 0.0399623C238.109 -0.163028 238.732 0.44484 238.53 1.0163C238.394 1.60542 237.536 1.77421 237.172 1.30093C236.794 0.902672 237.014 0.182276 237.539 0.0399623Z" fill="#2A2651"/>
<path fill-rule="evenodd" clip-rule="evenodd" d="M218.499 0.235221C218.922 0.00465061 219.509 0.36871 219.43 0.860741C219.407 1.34615 218.759 1.59107 218.401 1.28768C218.052 1.02622 218.109 0.428283 218.499 0.235221Z" fill="#2A2651"/>
<path fill-rule="evenodd" clip-rule="evenodd" d="M171.196 0.466958C171.458 0.32354 171.829 0.573969 171.728 0.874042C171.688 1.20501 171.175 1.26789 171.049 0.965609C170.94 0.791302 171.024 0.562937 171.196 0.466958Z" fill="#2A2651"/>
<path fill-rule="evenodd" clip-rule="evenodd" d="M227.473 6.89195C228.295 6.69778 229.189 6.80369 229.935 7.20636C230.994 7.77893 231.741 8.92406 231.748 10.1376C231.814 11.3169 231.206 12.5018 230.213 13.1427C229.161 13.8565 227.71 13.9028 226.601 13.2928C225.955 12.9276 225.421 12.3606 225.121 11.6821C224.694 10.7355 224.717 9.59591 225.201 8.67473C225.647 7.78665 226.502 7.1159 227.473 6.89195Z" fill="#2A2651"/>
<path fill-rule="evenodd" clip-rule="evenodd" d="M180.15 7.00013C180.824 6.88318 181.544 6.91407 182.178 7.1976C183.134 7.59475 183.865 8.4685 184.106 9.47242C184.332 10.4675 184.116 11.5729 183.45 12.3606C182.743 13.2498 181.559 13.7176 180.433 13.5598C178.846 13.4021 177.522 11.9469 177.526 10.3539C177.438 8.79394 178.617 7.3002 180.15 7.00013Z" fill="#2A2651"/>
<path fill-rule="evenodd" clip-rule="evenodd" d="M171.198 7.76906C172.012 7.7161 172.855 8.07465 173.348 8.73106C173.795 9.31024 173.984 10.0946 173.804 10.8084C173.614 11.7252 172.851 12.4952 171.932 12.6883C171.108 12.8791 170.188 12.6298 169.6 12.0186C168.948 11.3843 168.709 10.3759 168.988 9.51434C169.267 8.54792 170.197 7.83304 171.198 7.76906Z" fill="#2A2651"/>
<path fill-rule="evenodd" clip-rule="evenodd" d="M190.219 7.76578C191.06 7.72386 191.913 8.12874 192.391 8.82487C192.816 9.39964 192.916 10.1598 192.772 10.8482C192.573 11.6976 191.888 12.4191 191.043 12.6497C190.148 12.9244 189.109 12.6343 188.49 11.9326C187.89 11.2839 187.693 10.3109 187.973 9.47686C188.271 8.51266 189.212 7.80881 190.219 7.76578Z" fill="#2A2651"/>
<path fill-rule="evenodd" clip-rule="evenodd" d="M133.27 8.53354C134.3 8.40336 135.273 9.35874 135.16 10.3891C135.113 11.2993 134.248 12.0616 133.336 11.9877C132.442 11.9645 131.662 11.1493 131.698 10.2546C131.672 9.38743 132.404 8.59532 133.27 8.53354Z" fill="#2A2651"/>
<path fill-rule="evenodd" clip-rule="evenodd" d="M208.908 8.54676C209.919 8.27427 211.045 9.08733 211.068 10.1398C211.168 11.0786 210.367 11.9943 209.418 12.0064C208.575 12.0859 207.747 11.457 207.594 10.6274C207.371 9.7283 208 8.73872 208.908 8.54676Z" fill="#2A2651"/>
<path fill-rule="evenodd" clip-rule="evenodd" d="M294.354 9.18232C294.735 9.09075 295.184 9.14812 295.473 9.44157C295.949 9.87513 295.926 10.7158 295.42 11.1173C294.926 11.563 294.054 11.4274 293.722 10.8526C293.344 10.2613 293.658 9.35993 294.354 9.18232Z" fill="#2A2651"/>
<path fill-rule="evenodd" clip-rule="evenodd" d="M265.819 9.29252C266.478 8.99245 267.31 9.5253 267.281 10.2545C267.33 11.0455 266.336 11.5993 265.683 11.157C264.958 10.7653 265.044 9.57605 265.819 9.29252Z" fill="#2A2651"/>
<path fill-rule="evenodd" clip-rule="evenodd" d="M152.07 9.63014C152.55 9.35323 153.203 9.80114 153.109 10.3472C153.068 10.8933 152.324 11.1636 151.932 10.7918C151.562 10.4906 151.639 9.83423 152.07 9.63014Z" fill="#2A2651"/>
<path fill-rule="evenodd" clip-rule="evenodd" d="M284.972 9.64454C285.418 9.45479 285.943 9.88284 285.85 10.3583C285.815 10.8327 285.195 11.071 284.827 10.7985C284.401 10.5304 284.488 9.79458 284.972 9.64454Z" fill="#2A2651"/>
<path fill-rule="evenodd" clip-rule="evenodd" d="M256.525 9.72065C256.897 9.58827 257.321 9.84311 257.33 10.2491C257.335 10.6407 256.89 10.9695 256.525 10.7919C256.053 10.6385 256.06 9.88172 256.525 9.72065Z" fill="#2A2651"/>
<path fill-rule="evenodd" clip-rule="evenodd" d="M161.792 9.95678C162.066 9.84205 162.319 10.2083 162.153 10.4345C162.034 10.6353 161.685 10.6165 161.602 10.3937C161.515 10.2293 161.616 10.0075 161.792 9.95678Z" fill="#2A2651"/>
<path fill-rule="evenodd" clip-rule="evenodd" d="M199.811 9.95562C200.158 9.94018 200.23 10.526 199.867 10.5414C199.479 10.6198 199.429 9.98982 199.811 9.95562Z" fill="#2A2651"/>
<path fill-rule="evenodd" clip-rule="evenodd" d="M218.619 9.93802C219.001 9.67987 219.408 10.3506 219.002 10.5657C218.604 10.8581 218.182 10.1598 218.619 9.93802Z" fill="#2A2651"/>
<path fill-rule="evenodd" clip-rule="evenodd" d="M123.854 10.0428C124.194 9.88174 124.304 10.5139 123.945 10.4786C123.685 10.5326 123.623 10.0913 123.854 10.0428Z" fill="#2A2651"/>
<path fill-rule="evenodd" clip-rule="evenodd" d="M180.27 15.2753C182.128 15.0017 184.076 16.0365 184.889 17.7266C185.811 19.5392 185.315 21.9464 183.7 23.2029C182.15 24.508 179.708 24.54 178.118 23.2868C176.651 22.1913 175.999 20.1547 176.558 18.4128C177.035 16.7591 178.556 15.4771 180.27 15.2753Z" fill="#2A2651"/>
<path fill-rule="evenodd" clip-rule="evenodd" d="M170.64 15.3756C172.377 15.0701 174.248 15.903 175.144 17.4243C176.217 19.1221 175.922 21.5448 174.43 22.9028C172.949 24.3889 170.385 24.5378 168.727 23.2581C167.19 22.1504 166.556 20.0047 167.212 18.2341C167.727 16.7558 169.09 15.6183 170.64 15.3756Z" fill="#2A2651"/>
<path fill-rule="evenodd" clip-rule="evenodd" d="M189.558 15.3845C191.219 15.0789 193.021 15.7993 193.969 17.2026C195.099 18.768 195.003 21.0704 193.749 22.5388C192.513 24.0756 190.193 24.5842 188.428 23.6961C186.754 22.9227 185.705 21.0219 185.963 19.1961C186.146 17.3173 187.693 15.689 189.558 15.3845Z" fill="#2A2651"/>
<path fill-rule="evenodd" clip-rule="evenodd" d="M199.169 15.7099C200.757 15.4363 202.468 16.1943 203.297 17.581C204.304 19.1575 204.025 21.4279 202.625 22.6855C201.296 23.9807 199.055 24.1528 197.538 23.0893C196.109 22.1516 195.419 20.2618 195.904 18.6279C196.301 17.1298 197.635 15.9416 199.169 15.7099Z" fill="#2A2651"/>
<path fill-rule="evenodd" clip-rule="evenodd" d="M218.297 15.7133C219.897 15.4937 221.58 16.3366 222.342 17.7608C223.235 19.3064 222.925 21.4246 221.607 22.6348C220.212 24.0469 217.747 24.1308 216.237 22.8555C214.877 21.782 214.376 19.793 215.049 18.201C215.577 16.8672 216.868 15.8777 218.297 15.7133Z" fill="#2A2651"/>
<path fill-rule="evenodd" clip-rule="evenodd" d="M161.029 15.8259C162.706 15.4364 164.57 16.2671 165.384 17.7852C166.35 19.4598 165.864 21.7953 164.28 22.9195C162.761 24.0988 160.388 23.9355 159.06 22.5422C157.802 21.3452 157.541 19.3021 158.381 17.7984C158.924 16.8011 159.919 16.0686 161.029 15.8259Z" fill="#2A2651"/>
<path fill-rule="evenodd" clip-rule="evenodd" d="M151.865 16.063C153.458 15.8082 155.147 16.7206 155.784 18.2033C156.359 19.4587 156.155 21.0286 155.261 22.0855C154.315 23.2538 152.622 23.7248 151.205 23.2251C150.027 22.8423 149.089 21.8218 148.802 20.6215C148.577 19.6308 148.721 18.5364 149.303 17.6892C149.869 16.8121 150.83 16.2076 151.865 16.063Z" fill="#2A2651"/>
<path fill-rule="evenodd" clip-rule="evenodd" d="M228.038 17.5865C229.269 17.4023 230.512 18.4868 230.425 19.7411C230.496 21.001 229.222 22.0656 227.992 21.8527C226.873 21.7368 226.01 20.6215 226.14 19.515C226.219 18.5309 227.053 17.6836 228.038 17.5865Z" fill="#2A2651"/>
<path fill-rule="evenodd" clip-rule="evenodd" d="M208.908 18.2573C209.843 17.9627 210.891 18.7637 210.833 19.7411C210.868 20.6501 209.935 21.4114 209.049 21.2216C208.299 21.1091 207.73 20.3754 207.794 19.6264C207.818 18.9909 208.297 18.4195 208.908 18.2573Z" fill="#2A2651"/>
<path fill-rule="evenodd" clip-rule="evenodd" d="M284.758 18.2661C285.576 18.0024 286.54 18.5419 286.687 19.3991C286.912 20.2519 286.235 21.1642 285.366 21.2393C284.625 21.3319 283.873 20.809 283.72 20.0798C283.518 19.3241 284 18.4735 284.758 18.2661Z" fill="#2A2651"/>
<path fill-rule="evenodd" clip-rule="evenodd" d="M256.222 18.3488C257.063 18.0123 258.12 18.607 258.201 19.5226C258.349 20.3699 257.604 21.2436 256.734 21.1808C255.869 21.2227 255.13 20.3545 255.3 19.5083C255.349 18.9865 255.734 18.5308 256.222 18.3488Z" fill="#2A2651"/>
<path fill-rule="evenodd" clip-rule="evenodd" d="M104.526 18.5971C105.329 18.2573 106.301 18.9832 106.175 19.8492C106.122 20.7329 104.987 21.2503 104.281 20.7174C103.491 20.2265 103.644 18.8971 104.526 18.5971Z" fill="#2A2651"/>
<path fill-rule="evenodd" clip-rule="evenodd" d="M142.552 19.0229C143.056 18.7305 143.747 19.1696 143.696 19.7466C143.723 20.3611 142.924 20.7295 142.452 20.3611C141.97 20.0566 142.041 19.2568 142.552 19.0229Z" fill="#2A2651"/>
<path fill-rule="evenodd" clip-rule="evenodd" d="M294.459 19.1112C294.87 18.9391 295.389 19.2899 295.327 19.7445C295.37 20.2376 294.72 20.5641 294.332 20.2773C293.878 20.0225 293.958 19.2612 294.459 19.1112Z" fill="#2A2651"/>
<path fill-rule="evenodd" clip-rule="evenodd" d="M133.145 19.2193C133.514 18.9943 134.039 19.3032 134.006 19.7378C134.025 20.1835 133.449 20.4571 133.098 20.2034C132.759 19.9838 132.776 19.4002 133.145 19.2193Z" fill="#2A2651"/>
<path fill-rule="evenodd" clip-rule="evenodd" d="M275.442 19.2093C275.851 18.9776 276.404 19.377 276.282 19.8403C276.224 20.3037 275.55 20.4614 275.276 20.0952C275.021 19.8337 275.132 19.3737 275.442 19.2093Z" fill="#2A2651"/>
<path fill-rule="evenodd" clip-rule="evenodd" d="M313.37 19.2193C313.732 19.0009 314.281 19.2943 314.231 19.7356C314.251 20.146 313.762 20.4273 313.408 20.2431C312.99 20.0787 312.975 19.419 313.37 19.2193Z" fill="#2A2651"/>
<path fill-rule="evenodd" clip-rule="evenodd" d="M247.14 19.4311C247.551 19.2425 247.749 19.975 247.325 20.0291C246.958 20.1283 246.78 19.5403 247.14 19.4311Z" fill="#2A2651"/>
<path fill-rule="evenodd" clip-rule="evenodd" d="M303.983 19.4531C304.311 19.2402 304.68 19.7168 304.383 19.9672C304.062 20.2397 303.631 19.7047 303.983 19.4531Z" fill="#2A2651"/>
<path fill-rule="evenodd" clip-rule="evenodd" d="M114.337 19.5271C114.613 19.2998 114.885 19.8879 114.52 19.9386C114.254 20.0511 114.107 19.6418 114.337 19.5271Z" fill="#2A2651"/>
<path fill-rule="evenodd" clip-rule="evenodd" d="M237.733 19.5503C237.936 19.4951 238.005 19.8382 237.812 19.8923C237.602 19.9486 237.528 19.5966 237.733 19.5503Z" fill="#2A2651"/>
<path fill-rule="evenodd" clip-rule="evenodd" d="M198.844 24.3206C200.334 23.9929 201.983 24.4464 203.033 25.5672C204.362 26.8789 204.678 29.0534 203.815 30.7027C203.072 32.1821 201.453 33.1738 199.79 33.1297C198.08 33.1463 196.435 32.064 195.752 30.5063C195.043 28.9695 195.316 27.0422 196.435 25.768C197.052 25.041 197.914 24.5302 198.844 24.3206Z" fill="#2A2651"/>
<path fill-rule="evenodd" clip-rule="evenodd" d="M218.187 24.6637C219.591 24.4695 221.083 24.9648 222.065 25.9908C223.189 27.0973 223.634 28.8161 223.23 30.3353C222.83 31.9658 221.444 33.2974 219.8 33.6438C218.132 34.031 216.281 33.39 215.226 32.0419C214.057 30.6287 213.907 28.4907 214.831 26.9142C215.518 25.6963 216.798 24.8402 218.187 24.6637Z" fill="#2A2651"/>
<path fill-rule="evenodd" clip-rule="evenodd" d="M237.643 24.647C239.651 24.5599 241.6 25.9654 242.136 27.8993C242.717 29.767 241.922 31.9569 240.254 32.9928C238.544 34.1512 236.051 33.9107 234.6 32.4401C233.355 31.2674 232.899 29.3588 233.459 27.7471C234.022 25.972 235.78 24.6823 237.643 24.647Z" fill="#2A2651"/>
<path fill-rule="evenodd" clip-rule="evenodd" d="M266.055 24.6493C268.004 24.5489 269.918 25.8451 270.528 27.6985C271.203 29.5596 270.483 31.808 268.833 32.9134C267.238 34.0563 264.906 33.9835 263.388 32.738C261.821 31.5322 261.252 29.2596 262.023 27.4492C262.671 25.8363 264.314 24.7011 266.055 24.6493Z" fill="#2A2651"/>
<path fill-rule="evenodd" clip-rule="evenodd" d="M123.657 24.7607C125.355 24.6349 127.072 25.5804 127.859 27.0896C128.565 28.388 128.55 30.0528 127.833 31.3424C126.934 33.0017 124.905 33.9449 123.056 33.5323C121.058 33.1694 119.463 31.2707 119.515 29.2353C119.453 27.6654 120.35 26.1243 121.711 25.3498C122.302 25.0056 122.974 24.8114 123.657 24.7607Z" fill="#2A2651"/>
<path fill-rule="evenodd" clip-rule="evenodd" d="M132.595 24.7541C134.48 24.3702 136.526 25.3476 137.413 27.0488C138.355 28.7488 138.027 31.0413 136.617 32.3894C135.206 33.8435 132.78 34.1259 131.07 33.0414C129.41 32.0706 128.561 29.9789 129.031 28.1244C129.422 26.4321 130.876 25.0465 132.595 24.7541Z" fill="#2A2651"/>
<path fill-rule="evenodd" clip-rule="evenodd" d="M142.102 24.7486C143.929 24.3878 145.897 25.298 146.82 26.9064C147.839 28.5888 147.567 30.9188 146.178 32.3144C144.76 33.8456 142.247 34.1468 140.5 33.0083C138.907 32.0397 138.069 30.0186 138.499 28.2082C138.859 26.4707 140.346 25.0376 142.102 24.7486Z" fill="#2A2651"/>
<path fill-rule="evenodd" clip-rule="evenodd" d="M246.59 24.7508C247.849 24.5599 249.177 24.9273 250.152 25.747C251.65 26.9693 252.178 29.1967 251.392 30.9608C250.649 32.7766 248.605 33.9328 246.662 33.6327C244.54 33.4033 242.792 31.4649 242.766 29.339C242.638 27.1304 244.394 25.0332 246.59 24.7508Z" fill="#2A2651"/>
<path fill-rule="evenodd" clip-rule="evenodd" d="M114.029 25.0916C115.916 24.8622 117.847 26.1088 118.388 27.9302C118.97 29.6358 118.253 31.6657 116.729 32.631C115.73 33.2984 114.437 33.4683 113.288 33.1418C112.142 32.813 111.167 31.958 110.687 30.8703C110.025 29.4173 110.304 27.5882 111.398 26.4166C112.072 25.6741 113.028 25.1887 114.029 25.0916Z" fill="#2A2651"/>
<path fill-rule="evenodd" clip-rule="evenodd" d="M189.775 25.1027C191.362 24.7751 193.097 25.523 193.926 26.9142C194.907 28.4532 194.624 30.6507 193.267 31.8775C192.013 33.0943 189.938 33.2995 188.462 32.3706C187.075 31.5388 186.303 29.8068 186.648 28.2248C186.926 26.6759 188.225 25.384 189.775 25.1027Z" fill="#2A2651"/>
<path fill-rule="evenodd" clip-rule="evenodd" d="M160.473 25.3124C162.237 24.9086 164.182 25.8849 164.908 27.5397C165.706 29.2254 165.117 31.4252 163.547 32.4512C161.96 33.5964 159.555 33.2919 158.299 31.7959C157.043 30.4114 157 28.1278 158.203 26.6958C158.769 25.9919 159.587 25.4955 160.473 25.3124Z" fill="#2A2651"/>
<path fill-rule="evenodd" clip-rule="evenodd" d="M293.917 25.3024C295.169 25.0497 296.529 25.4403 297.445 26.3305C298.825 27.6081 299.051 29.895 297.969 31.4274C296.99 32.909 294.955 33.5477 293.3 32.9024C291.565 32.2978 290.445 30.3749 290.768 28.5734C290.989 26.9627 292.317 25.5925 293.917 25.3024Z" fill="#2A2651"/>
<path fill-rule="evenodd" clip-rule="evenodd" d="M181.372 25.4226C183.222 25.3542 184.982 26.7387 185.333 28.5535C185.785 30.4532 184.595 32.5581 182.726 33.1384C181.004 33.7496 178.928 32.9928 178.032 31.4009C177.135 29.9413 177.357 27.9214 178.542 26.6858C179.26 25.8992 180.31 25.448 181.372 25.4226Z" fill="#2A2651"/>
<path fill-rule="evenodd" clip-rule="evenodd" d="M208.786 25.8694C210.48 25.5583 212.267 26.7696 212.599 28.4553C212.985 29.9965 212.082 31.7153 210.603 32.2923C209.104 32.9443 207.203 32.3066 206.406 30.8824C205.754 29.7836 205.809 28.3108 206.552 27.2705C207.065 26.5247 207.89 26.0095 208.786 25.8694Z" fill="#2A2651"/>
<path fill-rule="evenodd" clip-rule="evenodd" d="M227.587 25.983C228.972 25.6675 230.505 26.3493 231.171 27.6069C231.781 28.7046 231.686 30.1586 230.92 31.1592C230.209 32.1223 228.937 32.6309 227.757 32.4224C226.671 32.2625 225.708 31.509 225.275 30.5073C224.842 29.5199 224.93 28.3218 225.52 27.4172C225.979 26.6868 226.745 26.165 227.587 25.983Z" fill="#2A2651"/>
<path fill-rule="evenodd" clip-rule="evenodd" d="M256.229 25.9742C257.302 25.7999 258.459 26.1981 259.179 27.0178C259.723 27.6125 260.007 28.4222 260.008 29.2242C260.001 30.3451 259.373 31.4362 258.398 31.9966C257.03 32.8229 255.084 32.4544 254.143 31.156C253.318 30.0958 253.263 28.5116 254.018 27.4017C254.509 26.6416 255.333 26.1121 256.229 25.9742Z" fill="#2A2651"/>
<path fill-rule="evenodd" clip-rule="evenodd" d="M170.429 26.1993C171.19 26.0658 172.008 26.1121 172.705 26.474C173.735 26.9638 174.479 27.9964 174.615 29.1283C174.856 30.6949 173.856 32.3276 172.356 32.8428C171.131 33.294 169.673 32.9785 168.746 32.0628C167.759 31.1273 167.457 29.5972 167.93 28.3373C168.339 27.2716 169.304 26.4298 170.429 26.1993Z" fill="#2A2651"/>
<path fill-rule="evenodd" clip-rule="evenodd" d="M274.917 26.1949C275.853 25.9555 276.902 26.1519 277.655 26.7686C278.576 27.489 279.025 28.7632 278.736 29.8973C278.509 30.9056 277.737 31.7716 276.756 32.1048C275.366 32.6244 273.658 31.9846 272.986 30.6585C272.49 29.7495 272.492 28.5878 273.004 27.6864C273.401 26.955 274.109 26.4023 274.917 26.1949Z" fill="#2A2651"/>
<path fill-rule="evenodd" clip-rule="evenodd" d="M151.968 27.6456C152.914 27.3488 153.996 28.1167 154.001 29.1095C154.078 30.0054 153.255 30.8537 152.351 30.7787C151.528 30.7986 150.793 30.0495 150.806 29.2342C150.754 28.5171 151.276 27.8232 151.968 27.6456Z" fill="#2A2651"/>
<path fill-rule="evenodd" clip-rule="evenodd" d="M303.981 27.9435C304.773 27.7869 305.559 28.5525 305.419 29.349C305.367 30.1466 304.429 30.6739 303.707 30.3584C303.041 30.1201 302.72 29.2773 303.033 28.6507C303.198 28.2712 303.572 28.0053 303.981 27.9435Z" fill="#2A2651"/>
<path fill-rule="evenodd" clip-rule="evenodd" d="M104.635 28.1651C105.315 27.9202 106.118 28.5093 106.037 29.2363C106.071 30.0759 104.949 30.5767 104.319 30.0461C103.635 29.575 103.83 28.3847 104.635 28.1651Z" fill="#2A2651"/>
<path fill-rule="evenodd" clip-rule="evenodd" d="M85.6134 28.2931C86.3 27.9809 87.1326 28.6351 86.9535 29.3721C86.8573 30.1002 85.8599 30.4102 85.3447 29.9104C84.8306 29.4747 84.9754 28.5336 85.6134 28.2931Z" fill="#2A2651"/>
<path fill-rule="evenodd" clip-rule="evenodd" d="M284.96 28.4929C285.428 28.3153 285.99 28.7191 285.927 29.2265C285.946 29.8068 285.163 30.1444 284.74 29.7583C284.303 29.4339 284.427 28.644 284.96 28.4929Z" fill="#2A2651"/>
<path fill-rule="evenodd" clip-rule="evenodd" d="M95.12 29.2132C95.0736 28.9297 95.3765 28.8348 95.5954 28.7896C95.7049 28.9153 95.8873 29.0256 95.8431 29.2242C95.8586 29.66 95.0979 29.6512 95.12 29.2132Z" fill="#2A2651"/>
<path fill-rule="evenodd" clip-rule="evenodd" d="M332.387 28.8117C332.64 28.6441 333.045 28.8007 333.067 29.1217C333.14 29.456 332.744 29.7462 332.445 29.5972C332.119 29.477 332.091 28.9772 332.387 28.8117Z" fill="#2A2651"/>
<path fill-rule="evenodd" clip-rule="evenodd" d="M323.095 29.0335C323.282 28.9684 323.375 29.2894 323.178 29.3335C322.984 29.3898 322.896 29.0798 323.095 29.0335Z" fill="#2A2651"/>
<path fill-rule="evenodd" clip-rule="evenodd" d="M94.7906 34.2461C96.6592 33.9295 98.6583 34.94 99.4798 36.65C100.442 38.4813 99.8944 40.9404 98.2282 42.1771C96.6526 43.4414 94.2135 43.4171 92.6667 42.1175C91.132 40.9172 90.5803 38.6634 91.3763 36.8883C91.9623 35.4994 93.2969 34.4679 94.7906 34.2461Z" fill="#2A2651"/>
<path fill-rule="evenodd" clip-rule="evenodd" d="M246.386 34.2516C247.68 34.0023 249.081 34.3266 250.1 35.1717C251.527 36.2937 252.108 38.3225 251.536 40.038C250.983 41.8208 249.214 43.1468 247.337 43.1314C245.482 43.2064 243.673 41.9763 243.049 40.2343C242.61 39.0716 242.679 37.7278 243.247 36.6213C243.859 35.41 245.045 34.4976 246.386 34.2516Z" fill="#2A2651"/>
<path fill-rule="evenodd" clip-rule="evenodd" d="M275.355 34.4689C277.233 34.277 279.134 35.5148 279.704 37.3108C280.321 39.0473 279.619 41.1323 278.07 42.1385C276.837 42.978 275.153 43.0784 273.824 42.4065C272.278 41.6486 271.312 39.8835 271.539 38.1746C271.717 36.2396 273.414 34.5969 275.355 34.4689Z" fill="#2A2651"/>
<path fill-rule="evenodd" clip-rule="evenodd" d="M237.227 34.597C238.525 34.4149 239.896 34.8948 240.777 35.869C241.948 37.0781 242.212 39.0429 241.424 40.5256C240.871 41.6145 239.804 42.4286 238.601 42.6614C237.381 42.9229 236.048 42.5798 235.105 41.7656C233.678 40.5885 233.249 38.4041 234.127 36.7769C234.721 35.6031 235.917 34.7569 237.227 34.597Z" fill="#2A2651"/>
<path fill-rule="evenodd" clip-rule="evenodd" d="M265.641 34.6025C267.64 34.2715 269.736 35.6461 270.2 37.6186C270.714 39.4522 269.746 41.5472 268.012 42.3415C266.335 43.1854 264.134 42.6691 263 41.182C262.094 40.0578 261.893 38.4405 262.428 37.1111C262.951 35.7818 264.224 34.7944 265.641 34.6025Z" fill="#2A2651"/>
<path fill-rule="evenodd" clip-rule="evenodd" d="M85.0641 34.6918C86.7713 34.2748 88.6775 35.0878 89.5355 36.6202C90.2475 37.8503 90.2553 39.4566 89.5344 40.6844C88.7272 42.1296 86.9758 42.9581 85.3427 42.6647C83.4023 42.3988 81.8532 40.5531 81.9284 38.6005C81.9085 36.7791 83.2862 35.0801 85.0641 34.6918Z" fill="#2A2651"/>
<path fill-rule="evenodd" clip-rule="evenodd" d="M104.959 34.6917C106.907 34.641 108.716 36.2274 108.908 38.1635C109.175 39.964 108.009 41.8284 106.28 42.3966C104.545 43.0298 102.45 42.2598 101.542 40.6568C100.604 39.1101 100.921 36.9489 102.273 35.742C102.994 35.0701 103.974 34.695 104.959 34.6917Z" fill="#2A2651"/>
<path fill-rule="evenodd" clip-rule="evenodd" d="M256.114 35.2478C257.255 35.0415 258.494 35.421 259.277 36.287C260.42 37.4498 260.527 39.4411 259.529 40.7274C258.756 41.7821 257.347 42.3216 256.067 42.0491C255.123 41.8693 254.271 41.2724 253.777 40.4527C253.242 39.5889 253.134 38.4901 253.459 37.5325C253.842 36.3642 254.901 35.4596 256.114 35.2478Z" fill="#2A2651"/>
<path fill-rule="evenodd" clip-rule="evenodd" d="M322.675 36.1237C323.673 35.9307 324.766 36.3885 325.307 37.2534C325.933 38.1911 325.834 39.5459 325.061 40.3722C324.405 41.1301 323.282 41.4114 322.337 41.0959C321.355 40.7914 320.632 39.8449 320.573 38.8244C320.463 37.5612 321.419 36.3256 322.675 36.1237Z" fill="#2A2651"/>
<path fill-rule="evenodd" clip-rule="evenodd" d="M303.652 37.1111C304.51 36.8 305.552 37.3505 305.753 38.2452C306.037 39.183 305.27 40.2619 304.28 40.2641C303.393 40.3667 302.555 39.6 302.547 38.7185C302.506 38.0158 302.979 37.3252 303.652 37.1111Z" fill="#2A2651"/>
<path fill-rule="evenodd" clip-rule="evenodd" d="M313.158 37.1089C314.021 36.7978 315.06 37.3759 315.244 38.275C315.516 39.237 314.688 40.327 313.673 40.2652C312.816 40.3225 312.039 39.5657 312.032 38.7185C311.987 38.0091 312.475 37.3119 313.158 37.1089Z" fill="#2A2651"/>
<path fill-rule="evenodd" clip-rule="evenodd" d="M114.035 37.665C114.769 37.3053 115.687 38.0235 115.519 38.82C115.448 39.6563 114.289 40.0203 113.718 39.4356C113.147 38.9491 113.334 37.9209 114.035 37.665Z" fill="#2A2651"/>
<path fill-rule="evenodd" clip-rule="evenodd" d="M294.461 38.1835C294.808 37.9827 295.279 38.3291 295.208 38.7207C295.191 39.1057 294.696 39.2856 294.397 39.0903C294.067 38.8972 294.098 38.3225 294.461 38.1835Z" fill="#2A2651"/>
<path fill-rule="evenodd" clip-rule="evenodd" d="M332.219 38.7196C332.111 38.2882 332.769 38.0455 332.987 38.4228C333.152 38.6545 332.976 38.8983 332.826 39.0781C332.584 39.0538 332.232 39.0362 332.219 38.7196Z" fill="#2A2651"/>
<path fill-rule="evenodd" clip-rule="evenodd" d="M76.3185 38.4382C76.6027 38.1735 77.0074 38.6633 76.6933 38.8806C76.4225 39.1233 76.0289 38.6622 76.3185 38.4382Z" fill="#2A2651"/>
<path fill-rule="evenodd" clip-rule="evenodd" d="M284.893 38.6016C284.9 38.349 285.274 38.2552 285.429 38.434C285.563 38.5575 285.481 38.7351 285.46 38.8885C285.382 38.9172 285.227 38.9734 285.151 39.001C285.024 38.8962 284.829 38.7969 284.893 38.6016Z" fill="#2A2651"/>
<path fill-rule="evenodd" clip-rule="evenodd" d="M284.29 43.7237C286.177 43.3122 288.252 44.261 289.152 45.9677C290.2 47.8233 289.687 50.3926 287.96 51.6635C286.38 52.9344 283.937 52.9046 282.38 51.615C280.942 50.4963 280.362 48.473 280.917 46.752C281.389 45.2384 282.727 44.026 284.29 43.7237Z" fill="#2A2651"/>
<path fill-rule="evenodd" clip-rule="evenodd" d="M85.5245 43.9731C87.4616 43.7116 89.4529 45.0079 89.9936 46.8823C90.5962 48.7059 89.7327 50.8505 88.0432 51.7618C86.3692 52.7271 84.0562 52.3255 82.8222 50.8351C81.5994 49.4538 81.4877 47.2463 82.5569 45.7448C83.228 44.763 84.3392 44.1011 85.5245 43.9731Z" fill="#2A2651"/>
<path fill-rule="evenodd" clip-rule="evenodd" d="M256.244 43.9764C257.542 43.8088 258.901 44.3041 259.794 45.2573C261.018 46.5215 261.28 48.5857 260.414 50.1169C259.574 51.7188 257.617 52.6046 255.854 52.1942C254.512 51.9151 253.349 50.93 252.855 49.6569C252.28 48.2183 252.577 46.4719 253.63 45.3279C254.299 44.5799 255.245 44.0912 256.244 43.9764Z" fill="#2A2651"/>
<path fill-rule="evenodd" clip-rule="evenodd" d="M265.508 43.9554C266.282 43.8318 267.093 43.9035 267.823 44.2014C269.094 44.7045 270.078 45.8662 270.367 47.2022C270.572 48.269 270.424 49.4229 269.832 50.3485C268.874 51.9349 266.803 52.7259 265.031 52.1688C263.15 51.6558 261.812 49.7109 262.014 47.7747C262.125 45.9004 263.653 44.2422 265.508 43.9554Z" fill="#2A2651"/>
<path fill-rule="evenodd" clip-rule="evenodd" d="M76.0113 44.1893C77.6643 43.9554 79.4002 44.8854 80.0957 46.4045C80.6297 47.5122 80.6076 48.8724 80.0315 49.9624C79.5329 50.9067 78.6395 51.6415 77.6068 51.9272C76.1661 52.342 74.5109 51.8764 73.5302 50.7379C72.5484 49.6402 72.2642 47.981 72.8347 46.6241C73.3533 45.3212 74.6115 44.3471 76.0113 44.1893Z" fill="#2A2651"/>
<path fill-rule="evenodd" clip-rule="evenodd" d="M275.147 44.1982C276.315 44.0283 277.557 44.3968 278.418 45.2109C279.772 46.4234 280.09 48.5967 279.133 50.1423C278.315 51.5709 276.552 52.3333 274.943 52.0056C273.648 51.7629 272.515 50.8197 272.032 49.5995C271.451 48.1521 271.794 46.3726 272.931 45.2881C273.53 44.7045 274.315 44.3118 275.147 44.1982Z" fill="#2A2651"/>
<path fill-rule="evenodd" clip-rule="evenodd" d="M312.946 45.2947C313.995 45.0388 315.179 45.3786 315.876 46.2192C316.646 47.0863 316.795 48.4301 316.255 49.4527C315.878 50.1985 315.159 50.7667 314.342 50.9498C313.447 51.1715 312.45 50.9332 311.756 50.3287C310.94 49.637 310.552 48.472 310.825 47.435C311.055 46.3991 311.913 45.5441 312.946 45.2947Z" fill="#2A2651"/>
<path fill-rule="evenodd" clip-rule="evenodd" d="M294.127 46.4784C295.143 46.1045 296.375 46.8745 296.409 47.9689C296.532 48.9121 295.726 49.8333 294.775 49.8421C293.889 49.9183 293.036 49.1968 292.967 48.3142C292.861 47.5287 293.367 46.7145 294.127 46.4784Z" fill="#2A2651"/>
<path fill-rule="evenodd" clip-rule="evenodd" d="M95.1321 46.6098C96.052 46.3582 97.0582 47.1393 97.0361 48.0925C97.077 48.9221 96.3406 49.6767 95.5091 49.6635C94.7407 49.6943 94.0187 49.0765 93.949 48.3098C93.834 47.5486 94.3747 46.7653 95.1321 46.6098Z" fill="#2A2651"/>
<path fill-rule="evenodd" clip-rule="evenodd" d="M323.111 47.0356C323.92 46.987 324.51 47.9479 324.092 48.6441C323.716 49.3965 322.472 49.3523 322.165 48.5668C321.834 47.895 322.364 47.0444 323.111 47.0356Z" fill="#2A2651"/>
<path fill-rule="evenodd" clip-rule="evenodd" d="M247.16 47.1481C247.852 47.0566 248.441 47.82 248.168 48.4676C247.932 49.1891 246.829 49.3038 246.447 48.6529C246.037 48.0803 246.454 47.1934 247.16 47.1481Z" fill="#2A2651"/>
<path fill-rule="evenodd" clip-rule="evenodd" d="M304.103 47.1459C304.815 47.0665 305.393 47.8972 305.054 48.5349C304.777 49.1979 303.748 49.2773 303.371 48.6706C302.944 48.0914 303.371 47.1669 304.103 47.1459Z" fill="#2A2651"/>
<path fill-rule="evenodd" clip-rule="evenodd" d="M67.0314 47.4857C67.5312 47.4648 67.8441 48.109 67.5323 48.4919C67.2802 48.8692 66.6411 48.8052 66.4598 48.3948C66.2541 47.9965 66.577 47.4681 67.0314 47.4857Z" fill="#2A2651"/>
<path fill-rule="evenodd" clip-rule="evenodd" d="M265.408 53.1175C266.569 52.9212 267.812 53.1473 268.787 53.8236C270.312 54.833 271.094 56.799 270.671 58.5773C270.26 60.594 268.312 62.1694 266.243 62.1087C264.419 62.1683 262.662 60.9603 262.008 59.2713C261.263 57.4796 261.836 55.2545 263.365 54.0531C263.95 53.5721 264.663 53.2554 265.408 53.1175Z" fill="#2A2651"/>
<path fill-rule="evenodd" clip-rule="evenodd" d="M284.307 53.1055C286.221 52.6962 288.322 53.6725 289.226 55.4068C290.199 57.1344 289.854 59.4754 288.409 60.8401C286.903 62.3813 284.27 62.5788 282.541 61.298C280.961 60.2058 280.242 58.0689 280.828 56.243C281.294 54.6665 282.685 53.4067 284.307 53.1055Z" fill="#2A2651"/>
<path fill-rule="evenodd" clip-rule="evenodd" d="M293.81 53.2102C295.06 52.9642 296.416 53.2599 297.423 54.0509C298.693 55.0029 299.352 56.6721 299.11 58.2353C298.914 59.6563 297.976 60.9503 296.682 61.5759C294.915 62.4794 292.575 62.026 291.303 60.4991C290.077 59.1212 289.878 56.9633 290.801 55.3736C291.426 54.2627 292.554 53.4474 293.81 53.2102Z" fill="#2A2651"/>
<path fill-rule="evenodd" clip-rule="evenodd" d="M303.444 53.2346C304.642 53.0415 305.922 53.3394 306.88 54.094C308.225 55.1166 308.877 56.9347 308.479 58.5763C308.058 60.5665 306.096 62.0955 304.054 61.9786C301.891 61.994 299.95 60.1649 299.777 58.0269C299.583 56.3004 300.519 54.5187 302.061 53.709C302.49 53.474 302.96 53.3162 303.444 53.2346Z" fill="#2A2651"/>
<path fill-rule="evenodd" clip-rule="evenodd" d="M313.278 53.6647C315.223 53.4309 317.171 54.8683 317.523 56.7901C317.891 58.4262 317.054 60.23 315.578 61.0254C314.346 61.716 312.744 61.6741 311.556 60.9129C310.191 60.0843 309.451 58.3655 309.794 56.8078C310.093 55.1442 311.59 53.7993 313.278 53.6647Z" fill="#2A2651"/>
<path fill-rule="evenodd" clip-rule="evenodd" d="M275.011 53.764C276.206 53.5577 277.492 53.8964 278.374 54.7426C279.525 55.7829 279.918 57.5403 279.35 58.9789C278.899 60.1792 277.807 61.1125 276.55 61.3773C275.754 61.5141 274.906 61.4788 274.162 61.1456C272.583 60.4925 271.587 58.7108 271.868 57.0295C272.062 55.4133 273.407 54.0321 275.011 53.764Z" fill="#2A2651"/>
<path fill-rule="evenodd" clip-rule="evenodd" d="M322.338 54.3213C323.312 54.0907 324.391 54.2926 325.186 54.9104C326.048 55.548 326.554 56.6226 326.504 57.6916C326.491 58.8731 325.775 60.0072 324.727 60.55C323.353 61.2991 321.478 60.9317 320.52 59.6873C319.835 58.8488 319.602 57.6651 319.919 56.6303C320.236 55.5028 321.195 54.5883 322.338 54.3213Z" fill="#2A2651"/>
<path fill-rule="evenodd" clip-rule="evenodd" d="M342.14 54.9897C343.133 54.8319 344.2 55.2975 344.739 56.1492C345.334 57.035 345.301 58.2839 344.661 59.1378C344.176 59.8052 343.361 60.2167 342.535 60.2112C341.575 60.2134 340.63 59.6541 340.201 58.7936C339.691 57.8349 339.856 56.5595 340.627 55.7862C341.02 55.3559 341.562 55.0768 342.14 54.9897Z" fill="#2A2651"/>
<path fill-rule="evenodd" clip-rule="evenodd" d="M332.391 56.1856C333.303 55.9915 334.214 56.8796 334.032 57.7952C333.945 58.6017 333.066 59.171 332.291 58.9591C331.668 58.819 331.197 58.22 331.213 57.5823C331.194 56.9071 331.725 56.2882 332.391 56.1856Z" fill="#2A2651"/>
<path fill-rule="evenodd" clip-rule="evenodd" d="M256.43 56.8564C256.926 56.638 257.572 57.0252 257.526 57.589C257.571 58.2079 256.784 58.5807 256.3 58.2365C255.795 57.9232 255.873 57.0682 256.43 56.8564Z" fill="#2A2651"/>
<path fill-rule="evenodd" clip-rule="evenodd" d="M66.9373 56.9622C67.4127 56.8652 67.8174 57.4201 67.5996 57.8481C67.4382 58.2431 66.8422 58.338 66.5691 58.0092C66.2186 57.6727 66.4497 57.0042 66.9373 56.9622Z" fill="#2A2651"/>
<path fill-rule="evenodd" clip-rule="evenodd" d="M360.813 57.0704C361.182 56.8894 361.694 57.1454 361.665 57.5878C361.703 58.0765 361.021 58.3468 360.695 58.0026C360.396 57.7544 360.482 57.2491 360.813 57.0704Z" fill="#2A2651"/>
<path fill-rule="evenodd" clip-rule="evenodd" d="M48.0143 57.2944C48.3427 57.2227 48.4897 57.7754 48.1459 57.857C47.77 58.0038 47.6141 57.333 48.0143 57.2944Z" fill="#2A2651"/>
<path fill-rule="evenodd" clip-rule="evenodd" d="M57.168 57.5746C57.2918 57.4565 57.3736 57.2072 57.5892 57.2712C57.9353 57.2933 57.942 57.8691 57.5948 57.8934C57.3714 57.9552 57.2885 57.7003 57.168 57.5746Z" fill="#2A2651"/>
<path fill-rule="evenodd" clip-rule="evenodd" d="M76.3123 57.269C76.7081 56.9876 77.1338 57.6772 76.6982 57.8956C76.3089 58.1747 75.9054 57.4962 76.3123 57.269Z" fill="#2A2651"/>
<path fill-rule="evenodd" clip-rule="evenodd" d="M274.797 62.6019C276.046 62.346 277.406 62.6295 278.426 63.3995C279.856 64.4377 280.57 66.344 280.15 68.0617C279.73 70.0618 277.806 71.6218 275.751 71.5776C273.839 71.6427 272.003 70.3233 271.411 68.5184C270.818 66.8151 271.34 64.7819 272.733 63.618C273.315 63.1061 274.037 62.7575 274.797 62.6019Z" fill="#2A2651"/>
<path fill-rule="evenodd" clip-rule="evenodd" d="M312.836 62.9295C314.045 62.6968 315.357 62.9935 316.311 63.7845C317.806 64.9484 318.295 67.1714 317.458 68.8648C316.665 70.577 314.629 71.5842 312.784 71.1539C310.902 70.7921 309.404 68.9895 309.468 67.0666C309.384 65.1084 310.914 63.2737 312.836 62.9295Z" fill="#2A2651"/>
<path fill-rule="evenodd" clip-rule="evenodd" d="M293.927 63.265C294.751 63.1238 295.628 63.2021 296.385 63.5772C297.444 64.0847 298.239 65.1029 298.472 66.2536C298.611 67.0181 298.56 67.8278 298.252 68.5482C297.725 69.8213 296.468 70.7569 295.092 70.8848C293.342 71.0978 291.549 69.9526 291.022 68.2735C290.477 66.7048 291.079 64.826 292.461 63.8916C292.895 63.5783 293.401 63.372 293.927 63.265Z" fill="#2A2651"/>
<path fill-rule="evenodd" clip-rule="evenodd" d="M284.536 63.3808C285.715 63.1723 286.981 63.5419 287.829 64.3936C288.981 65.4968 289.265 67.3634 288.519 68.7678C287.967 69.8291 286.884 70.6002 285.691 70.7414C284.116 70.9753 282.465 70.0685 281.814 68.6222C281.342 67.594 281.35 66.3518 281.879 65.3456C282.392 64.323 283.408 63.5772 284.536 63.3808Z" fill="#2A2651"/>
<path fill-rule="evenodd" clip-rule="evenodd" d="M331.962 63.5937C333.134 63.3686 334.412 63.7647 335.216 64.655C336.488 65.9567 336.452 68.2547 335.138 69.5157C333.9 70.8395 331.62 70.9057 330.292 69.6823C328.967 68.5581 328.722 66.4223 329.746 65.0245C330.269 64.2909 331.071 63.7592 331.962 63.5937Z" fill="#2A2651"/>
<path fill-rule="evenodd" clip-rule="evenodd" d="M265.846 65.2486C266.75 65.039 267.757 65.6215 267.994 66.525C268.311 67.4826 267.668 68.6144 266.677 68.8263C265.77 69.0712 264.74 68.5185 264.48 67.6127C264.119 66.621 264.806 65.4372 265.846 65.2486Z" fill="#2A2651"/>
<path fill-rule="evenodd" clip-rule="evenodd" d="M360.599 65.3589C361.488 65.0853 362.513 65.6247 362.769 66.5206C363.085 67.4274 362.501 68.5152 361.562 68.7413C360.585 69.0447 359.449 68.3199 359.351 67.2983C359.206 66.4555 359.769 65.574 360.599 65.3589Z" fill="#2A2651"/>
<path fill-rule="evenodd" clip-rule="evenodd" d="M66.8154 65.4614C67.7486 65.3059 68.673 66.12 68.6343 67.0633C68.6487 68.0021 67.7088 68.8097 66.7779 68.6276C65.9464 68.5195 65.3095 67.6734 65.4411 66.846C65.5041 66.1399 66.1122 65.5398 66.8154 65.4614Z" fill="#2A2651"/>
<path fill-rule="evenodd" clip-rule="evenodd" d="M57.5222 65.5728C58.4974 65.5298 59.2858 66.5977 58.9397 67.5111C58.6987 68.3231 57.7047 68.7401 56.9429 68.3915C56.275 68.1135 55.908 67.3015 56.1324 66.6175C56.3071 66.0174 56.8975 65.5827 57.5222 65.5728Z" fill="#2A2651"/>
<path fill-rule="evenodd" clip-rule="evenodd" d="M303.857 66.1024C304.48 65.8895 305.221 66.3914 305.164 67.0666C305.206 67.8079 304.272 68.311 303.662 67.9039C302.941 67.5255 303.065 66.3109 303.857 66.1024Z" fill="#2A2651"/>
<path fill-rule="evenodd" clip-rule="evenodd" d="M351.309 66.2303C351.895 65.9998 352.587 66.5558 352.461 67.1802C352.396 67.7947 351.604 68.1235 351.11 67.766C350.533 67.4053 350.656 66.4311 351.309 66.2303Z" fill="#2A2651"/>
<path fill-rule="evenodd" clip-rule="evenodd" d="M323.013 66.3506C323.524 66.2281 324.004 66.7786 323.821 67.2717C323.667 67.8399 322.779 67.9127 322.525 67.3931C322.277 66.9948 322.551 66.4212 323.013 66.3506Z" fill="#2A2651"/>
<path fill-rule="evenodd" clip-rule="evenodd" d="M28.8881 66.7853C29.2187 66.5547 29.5858 67.0369 29.2961 67.2972C28.9744 67.5642 28.5542 67.0369 28.8881 66.7853Z" fill="#2A2651"/>
<path fill-rule="evenodd" clip-rule="evenodd" d="M303.166 72.1667C305.042 71.7011 307.15 72.6223 308.069 74.3201C309.091 76.0599 308.712 78.4671 307.195 79.8031C306.643 80.3382 305.925 80.6316 305.219 80.8975C307.046 81.2858 308.627 82.6902 309.139 84.4962C309.742 86.4477 309.057 88.7148 307.45 89.9857C305.744 91.4122 303.1 91.528 301.274 90.2626C299.593 89.1583 298.687 87.017 299.079 85.0467C299.425 82.9649 301.187 81.2251 303.273 80.8842C301.337 80.518 299.786 78.7418 299.715 76.7726C299.539 74.6654 301.095 72.5991 303.166 72.1667Z" fill="#2A2651"/>
<path fill-rule="evenodd" clip-rule="evenodd" d="M312.844 72.0984C314.659 71.7453 316.625 72.6334 317.539 74.2408C318.607 75.9894 318.25 78.4396 316.718 79.8043C315.165 81.2958 312.522 81.394 310.859 80.0293C309.364 78.871 308.759 76.7318 309.436 74.9667C309.961 73.5028 311.306 72.3642 312.844 72.0984Z" fill="#2A2651"/>
<path fill-rule="evenodd" clip-rule="evenodd" d="M332.409 72.5275C334.314 72.3852 336.178 73.7951 336.54 75.6694C336.943 77.3926 336.031 79.3122 334.428 80.0756C333.318 80.6438 331.942 80.635 330.831 80.0778C329.82 79.5648 329.031 78.615 328.763 77.5118C328.369 76.0379 328.904 74.3709 330.103 73.42C330.751 72.8871 331.571 72.5804 332.409 72.5275Z" fill="#2A2651"/>
<path fill-rule="evenodd" clip-rule="evenodd" d="M341.351 72.5176C342.58 72.2826 343.913 72.6345 344.839 73.4818C346.041 74.5188 346.492 76.2906 345.99 77.7865C345.685 78.7342 345.009 79.555 344.142 80.0459C342.93 80.7421 341.351 80.7487 340.133 80.0658C338.671 79.2814 337.819 77.5438 338.089 75.9111C338.308 74.2397 339.689 72.8066 341.351 72.5176Z" fill="#2A2651"/>
<path fill-rule="evenodd" clip-rule="evenodd" d="M294.045 72.8672C295.011 72.7073 296.042 72.9169 296.839 73.4961C297.79 74.1558 298.377 75.2866 298.397 76.4394C298.443 77.9144 297.51 79.3563 296.141 79.9168C295.06 80.3746 293.753 80.2896 292.753 79.6707C292.187 79.3298 291.724 78.8279 291.411 78.2498C290.822 77.1565 290.843 75.7643 291.458 74.6864C291.999 73.7432 292.962 73.0426 294.045 72.8672Z" fill="#2A2651"/>
<path fill-rule="evenodd" clip-rule="evenodd" d="M56.9826 74.5144C57.4823 74.4095 58.0351 74.4195 58.494 74.6688C59.1209 74.9821 59.5643 75.6341 59.6063 76.3357C59.7014 77.2338 59.1331 78.1549 58.2751 78.4517C57.2391 78.8654 55.9488 78.2862 55.5916 77.2282C55.1593 76.1405 55.8448 74.7968 56.9826 74.5144Z" fill="#2A2651"/>
<path fill-rule="evenodd" clip-rule="evenodd" d="M322.658 74.4989C323.445 74.3202 324.333 74.6004 324.81 75.2668C325.433 76.0798 325.331 77.3574 324.552 78.0347C323.799 78.7684 322.469 78.7629 321.723 78.0226C321.003 77.3838 320.869 76.221 321.38 75.4168C321.666 74.9634 322.127 74.6148 322.658 74.4989Z" fill="#2A2651"/>
<path fill-rule="evenodd" clip-rule="evenodd" d="M284.853 74.7317C285.856 74.5111 286.94 75.2988 287.006 76.3292C287.125 77.2846 286.355 78.2499 285.385 78.3094C284.378 78.4473 283.374 77.5791 283.394 76.562C283.339 75.697 284.004 74.8851 284.853 74.7317Z" fill="#2A2651"/>
<path fill-rule="evenodd" clip-rule="evenodd" d="M47.9048 74.8387C48.8258 74.7306 49.7303 75.5083 49.7369 76.4384C49.8143 77.4312 48.849 78.3348 47.8583 78.1803C46.9241 78.1009 46.2054 77.129 46.3989 76.2155C46.5161 75.4841 47.1673 74.8949 47.9048 74.8387Z" fill="#2A2651"/>
<path fill-rule="evenodd" clip-rule="evenodd" d="M275.242 75.4002C275.861 75.12 276.661 75.4775 276.863 76.1262C277.09 76.7373 276.712 77.4853 276.081 77.6618C275.442 77.8913 274.662 77.4522 274.543 76.7826C274.404 76.2321 274.708 75.6076 275.242 75.4002Z" fill="#2A2651"/>
<path fill-rule="evenodd" clip-rule="evenodd" d="M38.2677 75.7026C38.8128 75.4764 39.4961 75.9453 39.4297 76.5432C39.4563 77.2184 38.5596 77.6288 38.0499 77.2007C37.5048 76.8389 37.6397 75.8945 38.2677 75.7026Z" fill="#2A2651"/>
<path fill-rule="evenodd" clip-rule="evenodd" d="M351.526 76.1592C351.755 76.1052 352.023 76.2993 351.966 76.5531C351.963 76.9171 351.37 77.0021 351.271 76.6557C351.148 76.4593 351.311 76.1879 351.526 76.1592Z" fill="#2A2651"/>
<path fill-rule="evenodd" clip-rule="evenodd" d="M341.15 81.9202C341.994 81.726 342.903 81.7856 343.708 82.1165C344.916 82.5986 345.859 83.6875 346.171 84.9485C346.61 86.6011 345.91 88.4821 344.475 89.4253C342.807 90.6046 340.287 90.2924 338.969 88.727C337.668 87.2906 337.591 84.9463 338.802 83.4327C339.379 82.6792 340.22 82.1309 341.15 81.9202Z" fill="#2A2651"/>
<path fill-rule="evenodd" clip-rule="evenodd" d="M322.461 82.0195C324.24 81.6841 326.146 82.7112 326.841 84.3793C327.266 85.3622 327.275 86.5184 326.866 87.5091C326.373 88.7226 325.247 89.6636 323.955 89.9074C322.281 90.2836 320.428 89.432 319.625 87.9206C318.761 86.4158 319.041 84.3704 320.28 83.1536C320.865 82.5623 321.638 82.1607 322.461 82.0195Z" fill="#2A2651"/>
<path fill-rule="evenodd" clip-rule="evenodd" d="M332.075 82.0272C333.355 81.8364 334.707 82.3262 335.579 83.2771C336.852 84.6153 336.978 86.846 335.869 88.321C334.893 89.7077 332.98 90.3156 331.377 89.7662C330.166 89.3746 329.173 88.3685 328.81 87.1527C328.343 85.67 328.829 83.9413 330.031 82.9451C330.605 82.4497 331.324 82.1309 332.075 82.0272Z" fill="#2A2651"/>
<path fill-rule="evenodd" clip-rule="evenodd" d="M313.166 82.1232C314.88 81.875 316.669 82.9241 317.281 84.5436C317.751 85.734 317.6 87.1582 316.851 88.203C316.244 89.0734 315.267 89.6835 314.21 89.8192C312.717 90.0563 311.141 89.3161 310.355 88.0331C309.658 86.9277 309.58 85.4681 310.15 84.2954C310.703 83.126 311.876 82.2754 313.166 82.1232Z" fill="#2A2651"/>
<path fill-rule="evenodd" clip-rule="evenodd" d="M37.9563 82.9958C39.0155 82.7917 40.1731 83.1447 40.873 83.9776C41.9245 85.1294 41.846 87.0964 40.7006 88.1577C39.6303 89.251 37.702 89.3083 36.572 88.2746C35.746 87.584 35.3679 86.4378 35.5791 85.3886C35.7925 84.2093 36.7776 83.2197 37.9563 82.9958Z" fill="#2A2651"/>
<path fill-rule="evenodd" clip-rule="evenodd" d="M47.4687 83.2297C48.1509 83.0962 48.8862 83.1966 49.4877 83.5551C50.3479 84.0593 50.9162 85.0434 50.8609 86.0473C50.8742 87.3104 49.8835 88.4787 48.6496 88.7204C47.7319 88.9289 46.7191 88.6277 46.0612 87.9591C45.3425 87.2465 45.0528 86.1289 45.3646 85.1636C45.6388 84.1961 46.4847 83.4305 47.4687 83.2297Z" fill="#2A2651"/>
<path fill-rule="evenodd" clip-rule="evenodd" d="M351.531 83.6643C352.336 83.6401 353.147 84.0604 353.566 84.7532C354.097 85.5795 354.01 86.7467 353.357 87.4825C352.638 88.3607 351.237 88.5416 350.311 87.8929C349.467 87.3502 349.082 86.2293 349.395 85.2816C349.663 84.356 350.574 83.6941 351.531 83.6643Z" fill="#2A2651"/>
<path fill-rule="evenodd" clip-rule="evenodd" d="M284.86 84.7642C285.656 84.5083 286.55 85.2177 286.459 86.0517C286.451 86.8482 285.554 87.4539 284.809 87.1748C284.057 86.9574 283.708 85.9954 284.111 85.3368C284.273 85.0577 284.549 84.8536 284.86 84.7642Z" fill="#2A2651"/>
<path fill-rule="evenodd" clip-rule="evenodd" d="M294.352 84.761C295.183 84.504 296.091 85.2828 295.939 86.1422C295.858 87.0976 294.569 87.5952 293.868 86.9366C293.104 86.3452 293.399 84.9684 294.352 84.761Z" fill="#2A2651"/>
<path fill-rule="evenodd" clip-rule="evenodd" d="M29.0034 85.5365C29.3815 85.4472 29.6679 85.9094 29.4656 86.2249C29.2721 86.557 28.6673 86.4356 28.6507 86.0407C28.6032 85.8112 28.7701 85.5674 29.0034 85.5365Z" fill="#2A2651"/>
<path fill-rule="evenodd" clip-rule="evenodd" d="M322.568 91.1761C324.567 90.8672 326.656 92.169 327.245 94.1018C327.894 95.9773 327.036 98.2245 325.288 99.1777C323.524 100.219 321.046 99.7701 319.788 98.1462C318.517 96.627 318.525 94.2309 319.804 92.7184C320.484 91.8777 321.495 91.3184 322.568 91.1761Z" fill="#2A2651"/>
<path fill-rule="evenodd" clip-rule="evenodd" d="M312.822 91.4895C314.005 91.2446 315.296 91.5369 316.228 92.3147C317.743 93.504 318.156 95.8174 317.169 97.4645C316.257 99.106 314.121 99.907 312.352 99.266C310.543 98.6979 309.344 96.7297 309.652 94.8664C309.864 93.2248 311.191 91.8039 312.822 91.4895Z" fill="#2A2651"/>
<path fill-rule="evenodd" clip-rule="evenodd" d="M331.846 91.827C333.091 91.5479 334.463 91.9671 335.332 92.9026C336.373 93.9772 336.632 95.7015 335.978 97.0419C335.509 98.0127 334.599 98.7728 333.547 99.0266C332.413 99.3123 331.153 99.042 330.257 98.2874C329.021 97.2978 328.59 95.4786 329.201 94.0279C329.656 92.9258 330.669 92.0642 331.846 91.827Z" fill="#2A2651"/>
<path fill-rule="evenodd" clip-rule="evenodd" d="M303.989 92.1635C304.772 92.1227 305.573 92.3654 306.193 92.8508C307.196 93.6076 307.681 94.9789 307.372 96.1957C307.16 97.15 306.48 97.9796 305.599 98.3989C304.256 99.0652 302.482 98.6625 301.581 97.4622C300.834 96.5267 300.679 95.1764 301.178 94.0919C301.662 92.9931 302.787 92.2231 303.989 92.1635Z" fill="#2A2651"/>
<path fill-rule="evenodd" clip-rule="evenodd" d="M341.247 92.3864C342.349 92.062 343.614 92.4007 344.404 93.2325C345.003 93.8338 345.326 94.6888 345.295 95.5349C345.275 96.6293 344.64 97.6939 343.671 98.2124C343.015 98.5952 342.222 98.6835 341.483 98.5533C340.494 98.3558 339.613 97.6685 339.213 96.743C338.84 95.9144 338.84 94.9326 339.23 94.1107C339.604 93.2767 340.366 92.6335 341.247 92.3864Z" fill="#2A2651"/>
<path fill-rule="evenodd" clip-rule="evenodd" d="M38.3991 93.3715C39.3588 93.2811 40.3307 93.943 40.5684 94.8796C40.8205 95.7269 40.4534 96.7209 39.6938 97.1843C39.1288 97.5538 38.377 97.6079 37.7578 97.3497C36.9573 97.0287 36.4288 96.1671 36.5007 95.311C36.5305 94.3071 37.4029 93.441 38.3991 93.3715Z" fill="#2A2651"/>
<path fill-rule="evenodd" clip-rule="evenodd" d="M28.5632 93.4895C29.5108 93.2292 30.5866 93.7389 30.9515 94.6545C31.2202 95.2933 31.1394 96.0743 30.7237 96.6348C30.2438 97.3066 29.3217 97.6233 28.529 97.3816C27.6776 97.1588 27.0242 96.3126 27.0794 95.4268C27.0297 94.5332 27.7075 93.7035 28.5632 93.4895Z" fill="#2A2651"/>
<path fill-rule="evenodd" clip-rule="evenodd" d="M294.362 94.1426C295.205 93.901 296.121 94.6523 296.023 95.5282C296.011 96.3501 295.11 96.9724 294.333 96.7308C293.597 96.5509 293.144 95.675 293.431 94.9744C293.577 94.5651 293.938 94.2452 294.362 94.1426Z" fill="#2A2651"/>
<path fill-rule="evenodd" clip-rule="evenodd" d="M351.528 95.1344C351.899 95.0307 352.079 95.6242 351.711 95.7456C351.301 95.8923 351.104 95.226 351.528 95.1344Z" fill="#2A2651"/>
<path fill-rule="evenodd" clip-rule="evenodd" d="M322.333 100.439C323.527 100.245 324.801 100.488 325.787 101.208C327.26 102.223 327.999 104.165 327.583 105.903C327.171 107.907 325.24 109.478 323.182 109.435C321.24 109.504 319.381 108.147 318.815 106.301C318.24 104.581 318.822 102.55 320.242 101.413C320.834 100.909 321.567 100.577 322.333 100.439Z" fill="#2A2651"/>
<path fill-rule="evenodd" clip-rule="evenodd" d="M331.955 100.656C333.768 100.343 335.702 101.332 336.496 102.99C337.099 104.2 337.084 105.697 336.46 106.895C335.976 107.82 335.146 108.563 334.168 108.931C332.483 109.584 330.42 109.053 329.294 107.635C328.128 106.258 327.995 104.138 328.972 102.624C329.62 101.581 330.735 100.837 331.955 100.656Z" fill="#2A2651"/>
<path fill-rule="evenodd" clip-rule="evenodd" d="M313.27 101.649C314.259 101.526 315.295 101.885 315.996 102.591C316.462 103.074 316.796 103.693 316.901 104.361C317.141 105.647 316.504 107.038 315.377 107.707C314.107 108.504 312.305 108.278 311.283 107.179C310.437 106.301 310.14 104.942 310.566 103.797C310.96 102.642 312.057 101.781 313.27 101.649Z" fill="#2A2651"/>
<path fill-rule="evenodd" clip-rule="evenodd" d="M341.568 102.962C342.489 102.689 343.567 103.168 343.953 104.053C344.442 105.027 343.957 106.334 342.948 106.751C341.969 107.209 340.679 106.737 340.269 105.732C339.752 104.661 340.405 103.243 341.568 102.962Z" fill="#2A2651"/>
<path fill-rule="evenodd" clip-rule="evenodd" d="M360.826 103.756C361.452 103.601 362.148 104.037 362.249 104.679C362.416 105.369 361.817 106.107 361.106 106.084C360.508 106.11 359.958 105.616 359.913 105.025C359.839 104.452 360.256 103.866 360.826 103.756Z" fill="#2A2651"/>
<path fill-rule="evenodd" clip-rule="evenodd" d="M29.0075 103.853C29.5946 103.803 30.1508 104.316 30.1397 104.908C30.1541 105.51 29.5692 106.042 28.9655 105.946C28.3994 105.903 27.956 105.341 28.0445 104.782C28.0799 104.283 28.521 103.896 29.0075 103.853Z" fill="#2A2651"/>
<path fill-rule="evenodd" clip-rule="evenodd" d="M304.093 104.069C304.747 103.97 305.249 104.76 304.908 105.316C304.633 105.855 303.793 105.891 303.474 105.379C303.106 104.886 303.479 104.1 304.093 104.069Z" fill="#2A2651"/>
<path fill-rule="evenodd" clip-rule="evenodd" d="M370.302 104.165C370.9 103.925 371.555 104.564 371.323 105.161C371.157 105.75 370.265 105.875 369.935 105.37C369.618 104.971 369.825 104.325 370.302 104.165Z" fill="#2A2651"/>
<path fill-rule="evenodd" clip-rule="evenodd" d="M19.4975 104.289C19.8657 104.216 20.2549 104.522 20.225 104.907C20.2681 105.419 19.5671 105.731 19.1956 105.392C18.7821 105.085 18.9789 104.337 19.4975 104.289Z" fill="#2A2651"/>
<path fill-rule="evenodd" clip-rule="evenodd" d="M351.427 104.303C351.815 104.182 352.263 104.493 352.23 104.912C352.261 105.421 351.579 105.724 351.203 105.398C350.814 105.106 350.95 104.416 351.427 104.303Z" fill="#2A2651"/>
<path fill-rule="evenodd" clip-rule="evenodd" d="M341.591 109.943C343.442 109.695 345.37 110.748 346.152 112.442C347.036 114.229 346.532 116.573 344.962 117.815C343.311 119.224 340.622 119.142 339.065 117.632C337.616 116.33 337.239 114.043 338.14 112.33C338.797 111.025 340.136 110.101 341.591 109.943Z" fill="#2A2651"/>
<path fill-rule="evenodd" clip-rule="evenodd" d="M360.384 109.938C362.36 109.595 364.459 110.75 365.222 112.599C366.029 114.41 365.449 116.711 363.861 117.907C362.287 119.177 359.849 119.161 358.284 117.884C356.808 116.742 356.203 114.638 356.843 112.888C357.359 111.352 358.778 110.174 360.384 109.938Z" fill="#2A2651"/>
<path fill-rule="evenodd" clip-rule="evenodd" d="M350.757 110.258C351.86 110.032 353.057 110.264 353.986 110.908C354.933 111.556 355.6 112.603 355.763 113.741C356.001 115.255 355.341 116.864 354.093 117.759C352.945 118.611 351.354 118.806 350.031 118.269C348.405 117.637 347.282 115.916 347.404 114.171C347.451 112.305 348.917 110.597 350.757 110.258Z" fill="#2A2651"/>
<path fill-rule="evenodd" clip-rule="evenodd" d="M322.453 110.361C323.222 110.245 324.027 110.319 324.748 110.628C326.09 111.185 327.072 112.513 327.2 113.961C327.425 115.785 326.224 117.647 324.477 118.217C322.878 118.789 320.961 118.23 319.934 116.88C318.719 115.376 318.807 112.995 320.156 111.603C320.758 110.954 321.578 110.51 322.453 110.361Z" fill="#2A2651"/>
<path fill-rule="evenodd" clip-rule="evenodd" d="M332.078 110.606C333.193 110.45 334.376 110.789 335.205 111.559C336.363 112.592 336.759 114.352 336.173 115.784C335.769 116.813 334.888 117.637 333.839 117.982C332.898 118.288 331.84 118.225 330.952 117.787C330.003 117.337 329.277 116.466 328.976 115.466C328.71 114.554 328.784 113.544 329.207 112.691C329.748 111.585 330.851 110.77 332.078 110.606Z" fill="#2A2651"/>
<path fill-rule="evenodd" clip-rule="evenodd" d="M369.996 111.248C371.023 111.06 372.14 111.395 372.858 112.16C373.64 112.936 373.933 114.135 373.649 115.193C373.286 116.683 371.712 117.741 370.193 117.522C369.219 117.41 368.314 116.826 367.829 115.977C367.343 115.168 367.278 114.138 367.595 113.257C367.968 112.229 368.917 111.438 369.996 111.248Z" fill="#2A2651"/>
<path fill-rule="evenodd" clip-rule="evenodd" d="M9.88804 113.897C10.1866 113.752 10.5935 113.942 10.6288 114.284C10.7306 114.697 10.2164 115.06 9.8615 114.831C9.4911 114.661 9.50437 114.045 9.88804 113.897Z" fill="#2A2651"/>
<path fill-rule="evenodd" clip-rule="evenodd" d="M28.7783 113.875C29.1155 113.676 29.6197 113.878 29.6573 114.287C29.7568 114.744 29.1973 115.108 28.8048 114.88C28.4212 114.688 28.4212 114.092 28.7783 113.875Z" fill="#2A2651"/>
<path fill-rule="evenodd" clip-rule="evenodd" d="M313.379 114.017C313.629 113.81 314.057 113.972 314.099 114.296C314.17 114.615 313.801 114.933 313.499 114.786C313.177 114.69 313.131 114.21 313.379 114.017Z" fill="#2A2651"/>
<path fill-rule="evenodd" clip-rule="evenodd" d="M379.76 114.529C379.775 114.331 379.843 114.006 380.121 114.089C380.363 114.123 380.338 114.41 380.325 114.595C380.124 114.65 379.929 114.64 379.76 114.529Z" fill="#2A2651"/>
<path fill-rule="evenodd" clip-rule="evenodd" d="M0.452716 114.203C0.662793 113.967 1.02324 114.327 0.799896 114.528C0.601981 114.763 0.23711 114.427 0.452716 114.203Z" fill="#2A2651"/>
<path fill-rule="evenodd" clip-rule="evenodd" d="M341.688 119.635C343.784 119.373 345.908 120.921 346.266 123.003C346.673 124.83 345.677 126.846 343.974 127.633C342.234 128.521 339.931 127.979 338.763 126.419C337.582 124.927 337.598 122.636 338.825 121.176C339.52 120.306 340.579 119.744 341.688 119.635Z" fill="#2A2651"/>
<path fill-rule="evenodd" clip-rule="evenodd" d="M370.112 119.637C372.027 119.393 373.996 120.633 374.582 122.471C375.208 124.216 374.51 126.312 372.957 127.331C371.255 128.537 368.692 128.201 367.364 126.594C366.083 125.161 366.003 122.846 367.168 121.32C367.857 120.383 368.951 119.756 370.112 119.637Z" fill="#2A2651"/>
<path fill-rule="evenodd" clip-rule="evenodd" d="M332.405 119.746C334.405 119.597 336.359 121.12 336.665 123.104C337.048 124.968 335.916 126.987 334.131 127.648C332.401 128.354 330.247 127.696 329.23 126.129C328.182 124.631 328.332 122.442 329.576 121.102C330.287 120.294 331.332 119.808 332.405 119.746Z" fill="#2A2651"/>
<path fill-rule="evenodd" clip-rule="evenodd" d="M350.969 119.738C352.811 119.426 354.773 120.519 355.45 122.261C356.197 123.998 355.555 126.189 353.979 127.24C352.34 128.422 349.853 128.15 348.526 126.624C347.217 125.237 347.09 122.933 348.234 121.41C348.877 120.52 349.877 119.896 350.969 119.738Z" fill="#2A2651"/>
<path fill-rule="evenodd" clip-rule="evenodd" d="M379.389 119.957C380.555 119.761 381.805 120.092 382.684 120.893C384.109 122.104 384.422 124.367 383.405 125.929C382.547 127.349 380.734 128.061 379.13 127.66C377.76 127.343 376.611 126.238 376.259 124.879C375.833 123.387 376.39 121.678 377.629 120.734C378.139 120.338 378.748 120.061 379.389 119.957Z" fill="#2A2651"/>
<path fill-rule="evenodd" clip-rule="evenodd" d="M360.368 120.179C361.53 119.971 362.791 120.289 363.647 121.122C364.804 122.165 365.151 123.97 364.49 125.376C363.975 126.541 362.818 127.393 361.548 127.529C360.411 127.683 359.216 127.269 358.421 126.443C357.357 125.394 357.062 123.684 357.67 122.33C358.145 121.23 359.186 120.398 360.368 120.179Z" fill="#2A2651"/>
<path fill-rule="evenodd" clip-rule="evenodd" d="M19.0549 122.385C19.9162 122.041 20.9865 122.629 21.1203 123.551C21.3094 124.384 20.6692 125.273 19.82 125.37C19.0107 125.505 18.166 124.89 18.0664 124.073C17.9481 123.369 18.3771 122.623 19.0549 122.385Z" fill="#2A2651"/>
<path fill-rule="evenodd" clip-rule="evenodd" d="M28.5768 123.705C28.6752 123.206 29.4868 123.189 29.5929 123.693C29.7179 124.055 29.3873 124.323 29.0721 124.407C28.7714 124.314 28.4696 124.05 28.5768 123.705Z" fill="#2A2651"/>
<path fill-rule="evenodd" clip-rule="evenodd" d="M332.19 129.469C333.924 129.237 335.707 130.348 336.274 131.997C336.641 133.045 336.546 134.254 335.988 135.218C335.365 136.321 334.169 137.073 332.903 137.147C331.177 137.297 329.45 136.14 328.949 134.484C328.409 132.887 329.07 130.987 330.497 130.082C331.001 129.748 331.586 129.537 332.19 129.469Z" fill="#2A2651"/>
<path fill-rule="evenodd" clip-rule="evenodd" d="M351.311 129.453C352.983 129.302 354.67 130.374 355.228 131.957C355.587 132.93 355.539 134.051 355.084 134.986C354.567 136.053 353.535 136.86 352.365 137.081C350.707 137.444 348.888 136.561 348.151 135.039C347.504 133.782 347.628 132.168 348.475 131.033C349.13 130.126 350.191 129.531 351.311 129.453Z" fill="#2A2651"/>
<path fill-rule="evenodd" clip-rule="evenodd" d="M322.566 129.566C324.35 129.253 326.235 130.413 326.752 132.145C327.324 133.83 326.512 135.846 324.912 136.643C323.795 137.241 322.377 137.221 321.279 136.591C320.293 136.043 319.58 135.03 319.411 133.918C319.155 132.51 319.801 130.991 320.989 130.192C321.458 129.868 322.001 129.653 322.566 129.566Z" fill="#2A2651"/>
<path fill-rule="evenodd" clip-rule="evenodd" d="M341.348 130.219C342.342 129.977 343.454 130.226 344.22 130.916C344.918 131.523 345.326 132.447 345.295 133.373C345.289 134.472 344.645 135.531 343.687 136.065C343.01 136.463 342.183 136.546 341.423 136.4C340.22 136.148 339.223 135.132 339 133.927C338.628 132.324 339.739 130.576 341.348 130.219Z" fill="#2A2651"/>
<path fill-rule="evenodd" clip-rule="evenodd" d="M19.1643 132.431C19.8012 132.09 20.6714 132.647 20.563 133.378C20.5608 134.167 19.4618 134.562 18.9299 134.006C18.4313 133.576 18.575 132.703 19.1643 132.431Z" fill="#2A2651"/>
<path fill-rule="evenodd" clip-rule="evenodd" d="M303.76 132.42C304.398 132.1 305.231 132.653 305.145 133.372C305.133 134.123 304.145 134.534 303.578 134.073C303.014 133.665 303.114 132.69 303.76 132.42Z" fill="#2A2651"/>
<path fill-rule="evenodd" clip-rule="evenodd" d="M0.347103 132.731C0.770575 132.508 1.34552 132.893 1.24933 133.377C1.22058 133.857 0.599196 134.092 0.238747 133.798C-0.128336 133.538 -0.0564672 132.915 0.347103 132.731Z" fill="#2A2651"/>
<path fill-rule="evenodd" clip-rule="evenodd" d="M322.789 138.502C324.466 138.343 326.175 139.273 326.942 140.77C327.611 142.037 327.592 143.647 326.869 144.888C326.375 145.763 325.558 146.447 324.613 146.786C323.043 147.365 321.146 146.937 320.021 145.689C318.601 144.248 318.479 141.776 319.724 140.188C320.444 139.225 321.587 138.598 322.789 138.502Z" fill="#2A2651"/>
<path fill-rule="evenodd" clip-rule="evenodd" d="M341.912 138.936C343.548 138.828 345.176 139.885 345.719 141.434C346.122 142.527 346.002 143.811 345.375 144.8C344.919 145.524 344.216 146.093 343.407 146.375C341.67 147.028 339.558 146.206 338.72 144.557C338.089 143.376 338.141 141.866 338.859 140.735C339.504 139.685 340.681 139 341.912 138.936Z" fill="#2A2651"/>
<path fill-rule="evenodd" clip-rule="evenodd" d="M313.61 140.376C314.523 140.352 315.423 140.895 315.813 141.723C316.283 142.647 316.041 143.863 315.258 144.543C314.501 145.246 313.273 145.35 312.403 144.8C311.499 144.269 311.05 143.097 311.363 142.098C311.624 141.111 312.591 140.389 313.61 140.376Z" fill="#2A2651"/>
<path fill-rule="evenodd" clip-rule="evenodd" d="M9.65571 141.592C10.4352 141.253 11.4049 141.903 11.3706 142.752C11.4204 143.574 10.5071 144.25 9.73421 143.965C9.04869 143.774 8.66281 142.949 8.94034 142.299C9.06417 141.976 9.33174 141.712 9.65571 141.592Z" fill="#2A2651"/>
<path fill-rule="evenodd" clip-rule="evenodd" d="M29.0048 141.583C29.8628 141.495 30.5671 142.502 30.1547 143.27C29.8097 144.127 28.4542 144.167 28.0506 143.34C27.6116 142.625 28.1667 141.611 29.0048 141.583Z" fill="#2A2651"/>
<path fill-rule="evenodd" clip-rule="evenodd" d="M360.929 141.915C361.568 141.764 362.165 142.48 361.897 143.081C361.691 143.681 360.813 143.816 360.423 143.324C360.002 142.854 360.287 141.998 360.929 141.915Z" fill="#2A2651"/>
<path fill-rule="evenodd" clip-rule="evenodd" d="M294.686 142.023C295.282 142.001 295.661 142.79 295.255 143.231C294.937 143.658 294.2 143.55 294.012 143.058C293.788 142.593 294.175 142.014 294.686 142.023Z" fill="#2A2651"/>
<path fill-rule="evenodd" clip-rule="evenodd" d="M19.3689 142.234C19.715 142.077 20.1561 142.331 20.1771 142.714C20.2313 143.13 19.7349 143.484 19.3567 143.29C18.9123 143.118 18.9189 142.396 19.3689 142.234Z" fill="#2A2651"/>
<path fill-rule="evenodd" clip-rule="evenodd" d="M332.387 142.326C332.689 142.142 333.144 142.384 333.121 142.749C333.181 143.137 332.666 143.409 332.363 143.184C332.042 143.007 332.062 142.485 332.387 142.326Z" fill="#2A2651"/>
<path fill-rule="evenodd" clip-rule="evenodd" d="M351.4 142.553C351.66 142.303 352.068 142.709 351.816 142.962C351.575 143.265 351.097 142.801 351.4 142.553Z" fill="#2A2651"/>
<path fill-rule="evenodd" clip-rule="evenodd" d="M303.428 148.097C304.525 147.914 305.698 148.145 306.605 148.8C308.081 149.803 308.737 151.794 308.19 153.484C307.818 154.693 306.862 155.709 305.674 156.155C304.039 156.794 302.035 156.281 300.933 154.912C299.785 153.569 299.65 151.49 300.603 150.006C301.225 149.015 302.27 148.295 303.428 148.097Z" fill="#2A2651"/>
<path fill-rule="evenodd" clip-rule="evenodd" d="M313.282 148.101C314.956 147.924 316.665 148.885 317.391 150.399C318.04 151.702 317.931 153.351 317.105 154.553C316.153 156.006 314.229 156.712 312.56 156.228C310.757 155.773 309.418 153.976 309.515 152.123C309.502 150.079 311.244 148.241 313.282 148.101Z" fill="#2A2651"/>
<path fill-rule="evenodd" clip-rule="evenodd" d="M331.964 148.321C332.781 148.204 333.639 148.3 334.384 148.673C335.374 149.154 336.149 150.067 336.444 151.129C336.819 152.394 336.508 153.839 335.632 154.83C334.615 156.026 332.855 156.503 331.373 155.986C330.295 155.639 329.396 154.798 328.963 153.756C328.498 152.619 328.576 151.259 329.218 150.206C329.791 149.211 330.833 148.514 331.964 148.321Z" fill="#2A2651"/>
<path fill-rule="evenodd" clip-rule="evenodd" d="M350.965 148.53C352.097 148.338 353.306 148.682 354.151 149.464C355.287 150.482 355.674 152.222 355.093 153.63C354.729 154.544 353.981 155.303 353.072 155.684C351.871 156.196 350.402 156.034 349.359 155.244C348.13 154.358 347.566 152.699 347.973 151.245C348.328 149.86 349.55 148.756 350.965 148.53Z" fill="#2A2651"/>
<path fill-rule="evenodd" clip-rule="evenodd" d="M275.578 149.422C276.478 149.38 277.39 149.789 277.941 150.506C278.66 151.4 278.717 152.75 278.107 153.716C277.562 154.617 276.472 155.141 275.428 155.019C274.504 154.941 273.648 154.359 273.228 153.538C272.757 152.665 272.803 151.544 273.348 150.715C273.822 149.953 274.684 149.467 275.578 149.422Z" fill="#2A2651"/>
<path fill-rule="evenodd" clip-rule="evenodd" d="M57.2048 150.851C57.9821 150.644 58.8501 151.211 58.944 152.014C59.1099 152.858 58.3448 153.7 57.4912 153.649C56.7493 153.636 56.108 152.976 56.1235 152.235C56.1069 151.596 56.5823 150.993 57.2048 150.851Z" fill="#2A2651"/>
<path fill-rule="evenodd" clip-rule="evenodd" d="M38.4117 151.513C38.9435 151.366 39.4776 151.959 39.2675 152.466C39.1271 152.966 38.4161 153.138 38.059 152.761C37.6289 152.389 37.8533 151.606 38.4117 151.513Z" fill="#2A2651"/>
<path fill-rule="evenodd" clip-rule="evenodd" d="M341.903 151.835C342.227 151.651 342.671 151.977 342.549 152.344C342.485 152.713 341.899 152.788 341.734 152.462C341.587 152.249 341.684 151.953 341.903 151.835Z" fill="#2A2651"/>
<path fill-rule="evenodd" clip-rule="evenodd" d="M322.969 152.038C323.211 151.911 323.509 152.126 323.338 152.385C323.104 152.619 322.76 152.277 322.969 152.038Z" fill="#2A2651"/>
<path fill-rule="evenodd" clip-rule="evenodd" d="M294.037 157.254C295.847 156.969 297.757 157.91 298.626 159.52C299.596 161.222 299.27 163.543 297.841 164.894C296.373 166.399 293.811 166.604 292.112 165.373C290.492 164.286 289.783 162.088 290.429 160.256C290.942 158.684 292.396 157.477 294.037 157.254Z" fill="#2A2651"/>
<path fill-rule="evenodd" clip-rule="evenodd" d="M284.528 158.136C285.471 157.969 286.486 158.159 287.273 158.719C288.31 159.42 288.918 160.689 288.822 161.936C288.75 163.405 287.675 164.755 286.26 165.16C284.95 165.573 283.43 165.154 282.516 164.134C281.46 163.006 281.274 161.189 282.068 159.867C282.582 158.967 283.509 158.325 284.528 158.136Z" fill="#2A2651"/>
<path fill-rule="evenodd" clip-rule="evenodd" d="M312.837 158.926C313.717 158.673 314.715 158.846 315.44 159.415C316.363 160.112 316.768 161.392 316.439 162.498C316.231 163.222 315.728 163.853 315.068 164.217C314.081 164.778 312.761 164.681 311.877 163.967C311.027 163.33 310.613 162.192 310.82 161.157C310.998 160.111 311.814 159.214 312.837 158.926Z" fill="#2A2651"/>
<path fill-rule="evenodd" clip-rule="evenodd" d="M303.769 159.021C304.634 158.885 305.552 159.202 306.149 159.843C306.775 160.506 307.042 161.501 306.792 162.385C306.519 163.507 305.439 164.386 304.274 164.381C303.453 164.435 302.627 164.07 302.105 163.44C301.319 162.55 301.258 161.126 301.94 160.162C302.353 159.545 303.038 159.136 303.769 159.021Z" fill="#2A2651"/>
<path fill-rule="evenodd" clip-rule="evenodd" d="M275.241 159.353C276.052 159.192 276.943 159.466 277.49 160.095C278.287 160.925 278.308 162.345 277.561 163.216C276.907 164.05 275.664 164.31 274.714 163.863C273.849 163.483 273.272 162.547 273.333 161.606C273.331 160.528 274.185 159.548 275.241 159.353Z" fill="#2A2651"/>
<path fill-rule="evenodd" clip-rule="evenodd" d="M94.9016 159.679C96.0338 159.315 97.3462 160.11 97.5486 161.279C97.7896 162.343 97.0554 163.506 95.9818 163.734C94.8518 164.049 93.5792 163.218 93.4178 162.061C93.2044 161.038 93.8932 159.944 94.9016 159.679Z" fill="#2A2651"/>
<path fill-rule="evenodd" clip-rule="evenodd" d="M76.2072 160.443C76.8706 160.272 77.6147 160.707 77.764 161.379C77.9276 162.003 77.5594 162.717 76.9325 162.909C76.3056 163.136 75.525 162.796 75.3127 162.156C75.0197 161.469 75.4741 160.594 76.2072 160.443Z" fill="#2A2651"/>
<path fill-rule="evenodd" clip-rule="evenodd" d="M322.87 161.098C323.271 160.925 323.79 161.197 323.806 161.651C323.856 162.169 323.203 162.554 322.78 162.241C322.354 161.986 322.415 161.285 322.87 161.098Z" fill="#2A2651"/>
<path fill-rule="evenodd" clip-rule="evenodd" d="M341.897 161.1C342.341 160.929 342.851 161.359 342.731 161.826C342.661 162.292 341.993 162.492 341.681 162.142C341.347 161.852 341.473 161.23 341.897 161.1Z" fill="#2A2651"/>
<path fill-rule="evenodd" clip-rule="evenodd" d="M256.543 161.209C256.881 161.06 257.32 161.35 257.27 161.731C257.265 162.117 256.757 162.359 256.449 162.127C256.103 161.925 256.164 161.336 256.543 161.209Z" fill="#2A2651"/>
<path fill-rule="evenodd" clip-rule="evenodd" d="M104.586 161.531C104.746 161.412 104.957 161.23 105.163 161.373C105.504 161.547 105.309 162.13 104.931 162.055C104.649 162.053 104.609 161.742 104.586 161.531Z" fill="#2A2651"/>
<path fill-rule="evenodd" clip-rule="evenodd" d="M247.036 161.309C247.281 161.145 247.652 161.315 247.694 161.608C247.786 161.93 247.402 162.26 247.097 162.11C246.751 162.012 246.718 161.457 247.036 161.309Z" fill="#2A2651"/>
<path fill-rule="evenodd" clip-rule="evenodd" d="M57.3879 161.404C57.5383 161.382 57.7296 161.354 57.807 161.527C58.0137 161.775 57.6367 162.153 57.3846 161.97C57.1613 161.846 57.1967 161.534 57.3879 161.404Z" fill="#2A2651"/>
<path fill-rule="evenodd" clip-rule="evenodd" d="M66.8292 161.548C67.0095 161.315 67.402 161.573 67.2295 161.828C67.0482 162.087 66.6534 161.806 66.8292 161.548Z" fill="#2A2651"/>
<path fill-rule="evenodd" clip-rule="evenodd" d="M332.485 161.515C332.668 161.315 333.014 161.643 332.821 161.84C332.626 162.13 332.198 161.702 332.485 161.515Z" fill="#2A2651"/>
<path fill-rule="evenodd" clip-rule="evenodd" d="M275.348 166.632C277.37 166.436 279.411 167.765 280.026 169.702C280.688 171.557 279.959 173.787 278.319 174.886C276.647 176.086 274.158 175.936 272.659 174.52C271.219 173.265 270.774 171.067 271.548 169.335C272.191 167.827 273.709 166.753 275.348 166.632Z" fill="#2A2651"/>
<path fill-rule="evenodd" clip-rule="evenodd" d="M265.291 166.851C267.089 166.445 269.086 167.285 270.016 168.881C271.099 170.608 270.749 173.052 269.223 174.408C267.715 175.839 265.173 175.953 263.544 174.663C261.988 173.521 261.389 171.302 262.126 169.527C262.646 168.182 263.876 167.144 265.291 166.851Z" fill="#2A2651"/>
<path fill-rule="evenodd" clip-rule="evenodd" d="M294.48 166.963C296.146 166.86 297.802 167.858 298.497 169.371C299.097 170.63 299.011 172.187 298.268 173.37C297.286 175.021 295.094 175.788 293.291 175.122C291.397 174.495 290.156 172.399 290.544 170.442C290.832 168.551 292.564 167.025 294.48 166.963Z" fill="#2A2651"/>
<path fill-rule="evenodd" clip-rule="evenodd" d="M255.998 167.618C257.183 167.359 258.489 167.744 259.333 168.618C260.42 169.682 260.682 171.453 259.985 172.797C259.469 173.819 258.444 174.575 257.304 174.734C256.137 174.925 254.897 174.504 254.095 173.639C253.041 172.546 252.819 170.778 253.543 169.451C254.041 168.52 254.96 167.825 255.998 167.618Z" fill="#2A2651"/>
<path fill-rule="evenodd" clip-rule="evenodd" d="M208.668 168.944C209.57 168.672 210.618 169.01 211.173 169.776C211.863 170.666 211.754 172.065 210.919 172.827C210.198 173.534 208.999 173.665 208.136 173.148C207.256 172.645 206.794 171.52 207.085 170.549C207.288 169.787 207.901 169.15 208.668 168.944Z" fill="#2A2651"/>
<path fill-rule="evenodd" clip-rule="evenodd" d="M199.49 169.596C200.351 169.389 201.286 170.009 201.412 170.886C201.599 171.793 200.845 172.751 199.911 172.755C199.048 172.83 198.228 172.082 198.239 171.217C198.178 170.463 198.747 169.732 199.49 169.596Z" fill="#2A2651"/>
<path fill-rule="evenodd" clip-rule="evenodd" d="M95.1072 169.819C95.8878 169.582 96.8044 170.157 96.8575 170.986C97.0178 171.856 96.1697 172.691 95.3007 172.531C94.4261 172.466 93.8589 171.453 94.185 170.66C94.3332 170.252 94.6892 169.934 95.1072 169.819Z" fill="#2A2651"/>
<path fill-rule="evenodd" clip-rule="evenodd" d="M142.564 169.948C143.473 169.642 144.431 170.595 144.129 171.502C143.923 172.411 142.635 172.73 142.017 172.042C141.334 171.424 141.672 170.159 142.564 169.948Z" fill="#2A2651"/>
<path fill-rule="evenodd" clip-rule="evenodd" d="M104.737 170.269C105.444 170.046 106.155 170.869 105.813 171.534C105.565 172.178 104.591 172.261 104.219 171.693C103.847 171.195 104.134 170.413 104.737 170.269Z" fill="#2A2651"/>
<path fill-rule="evenodd" clip-rule="evenodd" d="M218.413 170.381C218.976 170.074 219.733 170.572 219.671 171.208C219.657 171.841 218.864 172.251 218.338 171.896C217.775 171.574 217.816 170.644 218.413 170.381Z" fill="#2A2651"/>
<path fill-rule="evenodd" clip-rule="evenodd" d="M332.379 170.583C332.793 170.398 333.332 170.741 333.25 171.213C333.259 171.77 332.437 171.973 332.13 171.549C331.887 171.237 332 170.724 332.379 170.583Z" fill="#2A2651"/>
<path fill-rule="evenodd" clip-rule="evenodd" d="M133.162 170.701C133.406 170.602 133.762 170.627 133.885 170.902C134.151 171.289 133.668 171.846 133.243 171.65C132.832 171.529 132.793 170.893 133.162 170.701Z" fill="#2A2651"/>
<path fill-rule="evenodd" clip-rule="evenodd" d="M180.591 170.704C180.858 170.577 181.263 170.661 181.355 170.98C181.531 171.372 181.061 171.835 180.668 171.646C180.259 171.523 180.221 170.897 180.591 170.704Z" fill="#2A2651"/>
<path fill-rule="evenodd" clip-rule="evenodd" d="M123.741 170.791C124.086 170.562 124.532 171.025 124.313 171.365C124.166 171.652 123.698 171.653 123.572 171.351C123.448 171.159 123.548 170.89 123.741 170.791Z" fill="#2A2651"/>
<path fill-rule="evenodd" clip-rule="evenodd" d="M190.218 170.808C190.5 170.689 190.799 171.009 190.692 171.289C190.595 171.603 190.078 171.606 189.998 171.281C189.897 171.091 190.045 170.884 190.218 170.808Z" fill="#2A2651"/>
<path fill-rule="evenodd" clip-rule="evenodd" d="M114.375 170.939C114.676 170.789 114.832 171.361 114.501 171.389C114.228 171.465 114.107 171.009 114.375 170.939Z" fill="#2A2651"/>
<path fill-rule="evenodd" clip-rule="evenodd" d="M152.281 170.89C152.481 170.807 152.747 170.989 152.682 171.213C152.664 171.411 152.435 171.471 152.274 171.418C152.068 171.318 152.075 170.982 152.281 170.89Z" fill="#2A2651"/>
<path fill-rule="evenodd" clip-rule="evenodd" d="M161.859 171.473C161.443 171.425 161.538 170.895 161.866 170.785C162.263 170.849 162.323 171.502 161.859 171.473Z" fill="#2A2651"/>
<path fill-rule="evenodd" clip-rule="evenodd" d="M247.024 171.111C247.047 170.879 247.327 170.928 247.489 170.96C247.479 171.051 247.46 171.23 247.45 171.321C247.292 171.484 246.957 171.349 247.024 171.111Z" fill="#2A2651"/>
<path fill-rule="evenodd" clip-rule="evenodd" d="M284.928 171.042C285.053 170.999 285.244 170.834 285.363 170.991C285.536 171.116 285.384 171.451 285.174 171.388C284.985 171.398 284.989 171.157 284.928 171.042Z" fill="#2A2651"/>
<path fill-rule="evenodd" clip-rule="evenodd" d="M313.616 170.923C313.886 170.848 314.016 171.315 313.734 171.383C313.426 171.491 313.281 170.971 313.616 170.923Z" fill="#2A2651"/>
<path fill-rule="evenodd" clip-rule="evenodd" d="M304.139 171.372C303.996 171.229 303.981 171.082 304.148 170.956C304.204 171.005 304.315 171.105 304.371 171.155C304.289 171.224 304.21 171.296 304.139 171.372Z" fill="#2A2651"/>
<path fill-rule="evenodd" clip-rule="evenodd" d="M237.311 176.555C239.081 176.327 240.909 177.401 241.568 179.056C242.346 180.847 241.613 183.12 239.925 184.112C238.735 184.854 237.154 184.912 235.908 184.273C234.298 183.483 233.361 181.554 233.756 179.806C234.069 178.101 235.585 176.723 237.311 176.555Z" fill="#2A2651"/>
<path fill-rule="evenodd" clip-rule="evenodd" d="M256.332 177C258.015 176.777 259.746 177.893 260.23 179.517C260.518 180.476 260.428 181.562 259.919 182.435C259.36 183.429 258.305 184.129 257.168 184.242C255.937 184.401 254.643 183.873 253.884 182.895C252.932 181.736 252.831 179.976 253.631 178.711C254.204 177.767 255.229 177.115 256.332 177Z" fill="#2A2651"/>
<path fill-rule="evenodd" clip-rule="evenodd" d="M132.722 177.771C133.729 177.517 134.857 177.839 135.568 178.596C136.623 179.662 136.635 181.541 135.593 182.619C134.652 183.679 132.92 183.864 131.765 183.051C130.679 182.339 130.205 180.863 130.647 179.649C130.969 178.732 131.77 177.992 132.722 177.771Z" fill="#2A2651"/>
<path fill-rule="evenodd" clip-rule="evenodd" d="M142.783 178.106C144.12 178.006 145.401 179.134 145.431 180.48C145.555 181.815 144.418 183.104 143.071 183.128C142.252 183.201 141.431 182.823 140.929 182.181C140.295 181.397 140.224 180.218 140.732 179.353C141.146 178.625 141.947 178.15 142.783 178.106Z" fill="#2A2651"/>
<path fill-rule="evenodd" clip-rule="evenodd" d="M265.845 178.213C266.808 178.048 267.849 178.529 268.336 179.379C268.876 180.272 268.758 181.511 268.035 182.272C267.345 183.054 266.132 183.278 265.196 182.836C264.342 182.451 263.747 181.53 263.805 180.589C263.758 179.432 264.711 178.377 265.845 178.213Z" fill="#2A2651"/>
<path fill-rule="evenodd" clip-rule="evenodd" d="M313.28 178.987C314.275 178.722 315.363 179.561 315.337 180.592C315.414 181.621 314.343 182.503 313.347 182.272C312.632 182.154 312.047 181.52 311.988 180.801C311.886 179.985 312.467 179.153 313.28 178.987Z" fill="#2A2651"/>
<path fill-rule="evenodd" clip-rule="evenodd" d="M227.789 179.076C228.735 178.74 229.87 179.469 229.904 180.481C230.018 181.388 229.231 182.273 228.313 182.245C227.505 182.288 226.741 181.628 226.673 180.825C226.558 180.073 227.061 179.29 227.789 179.076Z" fill="#2A2651"/>
<path fill-rule="evenodd" clip-rule="evenodd" d="M123.522 179.409C124.436 179.041 125.471 179.986 125.196 180.927C125.02 181.854 123.729 182.236 123.069 181.568C122.353 180.969 122.623 179.669 123.522 179.409Z" fill="#2A2651"/>
<path fill-rule="evenodd" clip-rule="evenodd" d="M247.022 179.955C247.487 179.776 248.035 180.194 247.96 180.693C247.954 181.229 247.243 181.523 246.836 181.194C246.386 180.892 246.496 180.108 247.022 179.955Z" fill="#2A2651"/>
<path fill-rule="evenodd" clip-rule="evenodd" d="M284.948 180.164C285.251 179.983 285.737 180.2 285.711 180.582C285.797 181.008 285.236 181.306 284.907 181.055C284.587 180.854 284.603 180.327 284.948 180.164Z" fill="#2A2651"/>
<path fill-rule="evenodd" clip-rule="evenodd" d="M104.833 180.286C105.277 180.077 105.565 180.845 105.09 180.975C104.658 181.144 104.399 180.428 104.833 180.286Z" fill="#2A2651"/>
<path fill-rule="evenodd" clip-rule="evenodd" d="M114.219 180.486C114.386 180.363 114.648 180.339 114.713 180.591C114.69 180.852 114.449 180.865 114.247 180.812C114.24 180.73 114.225 180.568 114.219 180.486Z" fill="#2A2651"/>
<path fill-rule="evenodd" clip-rule="evenodd" d="M152.27 180.373C152.492 180.203 152.81 180.546 152.651 180.77C152.556 180.996 152.29 180.858 152.117 180.837C152.159 180.683 152.081 180.442 152.27 180.373Z" fill="#2A2651"/>
<path fill-rule="evenodd" clip-rule="evenodd" d="M218.559 180.457C218.688 180.437 218.943 180.301 219.002 180.501C219.159 180.736 218.804 180.985 218.623 180.787C218.606 180.704 218.575 180.539 218.559 180.457Z" fill="#2A2651"/>
<path fill-rule="evenodd" clip-rule="evenodd" d="M180.145 185.711C181.994 185.388 183.963 186.371 184.806 188.043C185.741 189.792 185.313 192.134 183.795 193.422C182.261 194.814 179.737 194.888 178.125 193.588C176.489 192.371 175.947 189.965 176.859 188.153C177.468 186.869 178.737 185.927 180.145 185.711Z" fill="#2A2651"/>
<path fill-rule="evenodd" clip-rule="evenodd" d="M189.556 185.829C190.71 185.635 191.949 185.878 192.895 186.584C194.436 187.663 195.093 189.8 194.427 191.557C193.809 193.375 191.865 194.609 189.954 194.398C188.181 194.272 186.59 192.926 186.153 191.213C185.84 190.039 186.035 188.734 186.709 187.719C187.347 186.737 188.402 186.041 189.556 185.829Z" fill="#2A2651"/>
<path fill-rule="evenodd" clip-rule="evenodd" d="M246.827 186.493C247.932 186.361 249.083 186.757 249.859 187.557C250.943 188.638 251.194 190.424 250.476 191.771C250.026 192.627 249.221 193.291 248.289 193.561C247.029 193.94 245.582 193.575 244.668 192.629C243.579 191.556 243.314 189.771 244.033 188.425C244.568 187.372 245.65 186.621 246.827 186.493Z" fill="#2A2651"/>
<path fill-rule="evenodd" clip-rule="evenodd" d="M208.559 186.922C209.4 186.731 210.324 186.864 211.054 187.335C211.988 187.907 212.582 188.978 212.577 190.071C212.586 190.957 212.214 191.837 211.569 192.446C210.762 193.224 209.535 193.535 208.457 193.225C207.619 193.011 206.893 192.435 206.472 191.686C206.034 190.904 205.935 189.943 206.21 189.091C206.541 188.025 207.469 187.17 208.559 186.922Z" fill="#2A2651"/>
<path fill-rule="evenodd" clip-rule="evenodd" d="M228.035 187.37C229.052 187.265 230.099 187.791 230.624 188.667C231.036 189.321 231.11 190.149 230.905 190.886C230.601 191.926 229.619 192.717 228.539 192.806C227.504 192.913 226.435 192.37 225.925 191.464C225.41 190.605 225.436 189.464 225.978 188.625C226.413 187.91 227.205 187.449 228.035 187.37Z" fill="#2A2651"/>
<path fill-rule="evenodd" clip-rule="evenodd" d="M161.696 188.474C162.62 188.334 163.547 189.136 163.51 190.076C163.558 190.959 162.747 191.755 161.865 191.715C160.914 191.734 160.104 190.785 160.275 189.853C160.369 189.141 160.978 188.544 161.696 188.474Z" fill="#2A2651"/>
<path fill-rule="evenodd" clip-rule="evenodd" d="M133.031 188.896C133.842 188.577 134.799 189.331 134.67 190.192C134.667 191.151 133.39 191.706 132.662 191.093C131.862 190.54 132.082 189.148 133.031 188.896Z" fill="#2A2651"/>
<path fill-rule="evenodd" clip-rule="evenodd" d="M284.749 189.14C285.36 188.825 286.198 189.274 286.242 189.965C286.323 190.464 285.974 190.965 285.493 191.097C284.9 191.292 284.198 190.822 284.16 190.201C284.106 189.768 284.344 189.315 284.749 189.14Z" fill="#2A2651"/>
<path fill-rule="evenodd" clip-rule="evenodd" d="M142.766 189.449C143.283 189.293 143.778 189.925 143.499 190.385C143.3 190.861 142.52 190.854 142.325 190.38C142.132 190.019 142.364 189.524 142.766 189.449Z" fill="#2A2651"/>
<path fill-rule="evenodd" clip-rule="evenodd" d="M171.303 189.569C171.73 189.483 172.07 190.04 171.805 190.385C171.596 190.743 170.974 190.661 170.876 190.259C170.746 189.958 170.984 189.6 171.303 189.569Z" fill="#2A2651"/>
<path fill-rule="evenodd" clip-rule="evenodd" d="M303.966 189.547C304.37 189.387 304.841 189.761 304.742 190.191C304.686 190.533 304.273 190.775 303.956 190.621C303.476 190.474 303.493 189.689 303.966 189.547Z" fill="#2A2651"/>
<path fill-rule="evenodd" clip-rule="evenodd" d="M95.3578 189.802C95.5811 189.665 95.8741 189.945 95.7757 190.18C95.7415 190.468 95.2185 190.468 95.1975 190.178C95.151 190.023 95.2074 189.865 95.3578 189.802Z" fill="#2A2651"/>
<path fill-rule="evenodd" clip-rule="evenodd" d="M123.77 189.892C123.922 189.826 124.195 189.835 124.166 190.07C124.218 190.279 123.994 190.331 123.837 190.318C123.676 190.221 123.696 190.031 123.77 189.892Z" fill="#2A2651"/>
<path fill-rule="evenodd" clip-rule="evenodd" d="M152.264 190.278C152.071 190.187 152.164 189.85 152.367 189.86C152.522 189.807 152.589 190.015 152.7 190.09C152.576 190.201 152.453 190.426 152.264 190.278Z" fill="#2A2651"/>
<path fill-rule="evenodd" clip-rule="evenodd" d="M218.648 189.91C218.904 189.667 219.216 190.154 218.908 190.293C218.66 190.461 218.452 190.049 218.648 189.91Z" fill="#2A2651"/>
<path fill-rule="evenodd" clip-rule="evenodd" d="M256.646 189.992C256.777 189.833 257.006 190.074 256.871 190.212C256.735 190.35 256.49 190.125 256.646 189.992Z" fill="#2A2651"/>
<path fill-rule="evenodd" clip-rule="evenodd" d="M237.127 197.091C237.64 196.227 238.992 196.102 239.665 196.843C240.291 197.453 240.272 198.569 239.62 199.154C239.161 199.605 238.456 199.695 237.861 199.496C237.825 199.548 237.754 199.654 237.718 199.707C237.709 199.631 237.693 199.478 237.684 199.402C236.896 198.953 236.613 197.844 237.127 197.091Z" fill="#2A2651"/>
<path fill-rule="evenodd" clip-rule="evenodd" d="M180.704 198.833C181.188 198.706 181.688 199.185 181.581 199.676C181.519 200.227 180.75 200.508 180.363 200.093C179.918 199.728 180.134 198.923 180.704 198.833Z" fill="#2A2651"/>
<path fill-rule="evenodd" clip-rule="evenodd" d="M142.779 199.261C142.94 199.217 143.187 199.253 143.209 199.463C143.327 199.73 142.916 200.017 142.718 199.797C142.534 199.658 142.567 199.358 142.779 199.261Z" fill="#2A2651"/>
<path fill-rule="evenodd" clip-rule="evenodd" d="M190.005 199.4C190.119 199.087 190.652 199.132 190.702 199.467C190.752 199.636 190.619 199.772 190.536 199.904C190.439 199.903 190.245 199.901 190.149 199.9C190.056 199.751 189.897 199.581 190.005 199.4Z" fill="#2A2651"/>
<path fill-rule="evenodd" clip-rule="evenodd" d="M227.926 199.629C227.827 199.28 228.352 199.011 228.569 199.319C228.747 199.511 228.6 199.766 228.452 199.926C228.245 199.891 227.955 199.893 227.926 199.629Z" fill="#2A2651"/>
<path fill-rule="evenodd" clip-rule="evenodd" d="M133.254 199.372C133.329 199.366 133.48 199.354 133.555 199.347C133.734 199.45 133.678 199.803 133.442 199.782C133.231 199.821 133.102 199.517 133.254 199.372Z" fill="#2A2651"/>
<path fill-rule="evenodd" clip-rule="evenodd" d="M161.806 199.465C161.978 199.4 162.04 199.462 161.992 199.65C161.815 199.709 161.752 199.647 161.806 199.465Z" fill="#2A2651"/>
<path fill-rule="evenodd" clip-rule="evenodd" d="M208.963 177.765C209.823 177.559 210.759 178.179 210.885 179.056C211.072 179.962 210.318 180.92 209.383 180.924C208.521 180.999 207.7 180.252 207.711 179.387C207.651 178.632 208.22 177.902 208.963 177.765Z" fill="#2A2651"/>
<path fill-rule="evenodd" clip-rule="evenodd" d="M175.262 170.661C175.506 170.562 175.862 170.587 175.985 170.862C176.251 171.249 175.768 171.806 175.342 171.61C174.932 171.49 174.892 170.853 175.262 170.661Z" fill="#2A2651"/>
<path fill-rule="evenodd" clip-rule="evenodd" d="M167.388 170.752C167.733 170.522 168.178 170.986 167.96 171.325C167.812 171.612 167.345 171.613 167.219 171.311C167.095 171.119 167.194 170.85 167.388 170.752Z" fill="#2A2651"/>
<path fill-rule="evenodd" clip-rule="evenodd" d="M224.981 170.447C225.249 170.32 225.654 170.404 225.745 170.722C225.921 171.114 225.451 171.577 225.059 171.389C224.65 171.265 224.612 170.64 224.981 170.447Z" fill="#2A2651"/>
<path fill-rule="evenodd" clip-rule="evenodd" d="M234.608 170.55C234.89 170.431 235.19 170.751 235.082 171.031C234.985 171.346 234.469 171.348 234.388 171.023C234.288 170.834 234.436 170.626 234.608 170.55Z" fill="#2A2651"/>
<path fill-rule="evenodd" clip-rule="evenodd" d="M160.9 178.723C161.711 178.404 162.668 179.158 162.539 180.019C162.536 180.978 161.259 181.533 160.531 180.919C159.731 180.367 159.951 178.974 160.9 178.723Z" fill="#2A2651"/>
<path fill-rule="evenodd" clip-rule="evenodd" d="M167.977 179.136C168.494 178.98 168.989 179.612 168.71 180.072C168.511 180.548 167.731 180.541 167.536 180.067C167.343 179.706 167.575 179.211 167.977 179.136Z" fill="#2A2651"/>
<path fill-rule="evenodd" clip-rule="evenodd" d="M175.1 178.461C175.737 178.12 176.607 178.677 176.499 179.409C176.496 180.198 175.397 180.593 174.865 180.037C174.367 179.606 174.511 178.734 175.1 178.461Z" fill="#2A2651"/>
<path fill-rule="evenodd" clip-rule="evenodd" d="M199.441 178.138C200.252 177.819 201.209 178.572 201.08 179.434C201.077 180.393 199.8 180.948 199.072 180.334C198.272 179.782 198.492 178.389 199.441 178.138Z" fill="#2A2651"/>
<path fill-rule="evenodd" clip-rule="evenodd" d="M181.863 178.376C182.339 178.279 182.743 178.834 182.525 179.262C182.364 179.657 181.768 179.752 181.495 179.423C181.144 179.086 181.375 178.418 181.863 178.376Z" fill="#2A2651"/>
<path fill-rule="evenodd" clip-rule="evenodd" d="M191.238 178.683C191.634 178.401 192.06 179.091 191.624 179.309C191.235 179.588 190.831 178.91 191.238 178.683Z" fill="#2A2651"/>
</g>
<circle cx="187.461" cy="102.461" r="63.4607" fill="url(#paint0_linear_327_160)" fill-opacity="0.8"/>
<circle cx="186.885" cy="101.884" r="31.7304" fill="#1B1D32"/>
<circle cx="208.806" cy="81.1149" r="14.4229" fill="white"/>
<defs>
<linearGradient id="paint0_linear_327_160" x1="124" y1="92.3407" x2="250.921" y2="92.3407" gradientUnits="userSpaceOnUse">
<stop stop-color="#107BB7"/>
<stop offset="1" stop-color="#39B6C0"/>
</linearGradient>
<clipPath id="clip0_327_160">
<rect width="384" height="209" fill="white"/>
</clipPath>
</defs>
</svg>
